<svg aria-label="Schwarzkopf" role="img" id="Layer_1" xmlns="http://www.w3.org/2000/svg" version="1.1" viewBox="0 0 480 120" shape-rendering="geometricPrecision" text-rendering="geometricPrecision"><defs><style type="text/css"><![CDATA[
    svg path, svg polygon, svg rect, svg circle, svg ellipse, svg polyline, svg line, svg text { fill: #ffffff !important; }
    svg > circle[fill="none"], svg > rect[fill="none"], svg > ellipse[fill="none"] { fill: none !important; }
    clipPath path, clipPath polygon, clipPath rect, clipPath circle, clipPath ellipse,
    mask path, mask polygon, mask rect, mask circle { fill: #000000 !important; stroke: none !important; }
  ]]></style></defs>
  <!-- Generator: Adobe Illustrator 30.4.0, SVG Export Plug-In . SVG Version: 2.1.4 Build 226)  -->
  <defs>
    
  </defs>
  <path  d="M242.3,3.3c-1.3,0-2.7-.3-3.9-.6-2-.5-4,0-5.8.6-1.4.3-2.9.3-4.1.9-1.6.9-3.5,1.4-4.6,3-.9,1.1-2,1.9-2.3,3.3-.2,1.7,0,3.4,1.5,4.5.4.5,1.2.5,1.4,1.1-.2,1.2-.8,2.2-1.2,3.3-.7,1.2,1.1,1.9.5,3.2l-2.6,4.6c-.3.7-.7,1.3-.7,2.1.3,1.3,1.8.8,2.6,1.6.5.7-.3,1.2-.3,1.9-.2.5.7.8.3,1.3-.5.8.4,1.4.6,2.1,0,1-.6,2.2.2,3,2,1.4,5.1.3,7.2,1.4,1.1.8.8,2.3.8,3.4-.6,5-3,9.4-6.1,13.3-.3.5-.6,1.1-.4,1.7.5.2,1.1.1,1.6,0,5.7-1.9,10.2-6.9,15.8-9.2,2.2-1,4.6-1.4,7-1.9.6-.5.3-1.3.1-1.9-1.2-3-2.5-6.1-2.3-9.6,0-1.3,1.5-1.6,2.3-2,1.5-.4,2.4-1.9,3.1-3.2,1.2-1.7,2.8-3.3,2.9-5.4,0-1.9,0-3.9.6-5.6.5-1.8.2-3.9-.4-5.6-.2-2.3-.9-4.4-2.4-6.1-1.4-1.9-3.7-2.2-5.4-3.6-1.6-1.4-3.8-1.6-6-1.5h0Z"/>
  <path  d="M131.4,110v2.7c0,1.4,0,2.7,0,3.3,0,.5-.1.8-.4.9-.1,0-.3,0-.6,0s-.2,0-.2.1.1.2.3.2c.6,0,1.6,0,2,0s1.4,0,2.4,0,.3,0,.3-.2,0-.1-.2-.1-.6,0-.8,0c-.5,0-.6-.4-.6-.8,0-.7,0-1.9,0-3.3v-6.2c0-.2,0-.3.1-.3.1,0,.4,0,.6,0,.4,0,1,0,1.6.6.9.8.9,1.8.9,2.3,0,1.6-1.2,2.6-2.1,2.6s-.4,0-.4.2.1.1.2.1c0,0,.3,0,.3,0,2.2,0,3.8-1.6,3.8-3.8s-.4-1.5-.8-1.9c-.2-.2-.9-.9-2.9-.9s-1.6,0-2.3,0-1.4,0-2.2,0-.3,0-.3.1,0,.1.3.1.5,0,.6,0c.5.1.6.4.7.9,0,.5,0,.9,0,3.3h0Z"/>
  <path  d="M149.7,110c0-2.4,0-2.8,0-3.3,0-.5-.2-.8-.7-.9-.1,0-.4,0-.6,0s-.3,0-.3-.1.1-.1.3-.1c.8,0,1.8,0,2.1,0,.5,0,1.7,0,2.2,0,1,0,2,0,2.9.7.4.3,1.1,1.1,1.1,2.1s-.5,2.2-2,3.5c1.4,1.7,2.4,3.1,3.4,4.1.9.9,1.5,1,1.7,1.1.2,0,.3,0,.4,0s.2,0,.2.1c0,.1-.1.2-.3.2h-1.5c-.9,0-1.3,0-1.7-.3-.7-.4-1.3-1.1-2.1-2.3-.6-.9-1.3-1.9-1.5-2.1,0,0-.2-.1-.3-.1h-1.4c0,0-.1,0-.1,0v.2c0,1.4,0,2.7,0,3.3,0,.5.1.8.6.9.2,0,.6,0,.8,0s.2,0,.2.1-.1.2-.3.2c-.9,0-2.1,0-2.3,0s-1.3,0-1.9,0-.3,0-.3-.2,0-.1.3-.1.4,0,.6,0c.3,0,.4-.4.5-.9,0-.7,0-1.9,0-3.3v-2.7h0ZM151.5,111.2c0,.2,0,.2.1.3.3.1.8.2,1.2.2.6,0,.8,0,1.1-.3.5-.3.9-1.1.9-2.3,0-2.2-1.5-2.8-2.4-2.8s-.7,0-.8,0c-.1,0-.1,0-.1.2v4.7h0Z"/>
  <path  d="M167.6,111.4c0-2.7,1.8-6.1,6.4-6.1s6.3,2.3,6.3,5.8-2.5,6.4-6.4,6.4-6.3-3.3-6.3-6.1h0ZM178.1,111.7c0-3.5-2-5.6-4.5-5.6s-3.8,1-3.8,4.9,1.8,5.8,4.8,5.8,3.6-.5,3.6-5h0Z"/>
  <path  d="M193.7,112.7v-1.3c0-.1,0-.1.1-.1.3,0,1.9,0,2.3,0,.5,0,.7.3.8.6,0,.2,0,.4,0,.5s0,.2.1.2c.2,0,.2-.2.2-.3s0-.8,0-1.1c0-.5.1-.9.1-1s0-.1,0-.1c0,0-.1,0-.2.2-.2.2-.4.3-.7.3h0c-.2,0-.4,0-.7,0h-2c0,0-.1,0-.1-.1v-3.9c0-.2,0-.2.1-.2h2.4c.6,0,.9.3,1,.5,0,.2,0,.5,0,.6,0,.2,0,.2.2.2s.1,0,.1-.2c0-.2,0-1.1,0-1.3,0-.4.1-.6.1-.7s0-.1-.1-.1-.2,0-.2,0c-.2,0-.3,0-.6,0-.4,0-3.5,0-4.1,0s-1.4,0-2.2,0-.4,0-.4.2.1.1.3.1.5,0,.6,0c.5.1.6.4.7.9,0,.5,0,.9,0,3.3v2.7c0,1.5,0,2.7,0,3.3,0,.5-.1.8-.4.9-.1,0-.3,0-.6,0s-.2,0-.2.1c0,.1.1.2.3.2.6,0,1.6,0,2,0s1.4,0,2.4,0,.3,0,.3-.2,0-.1-.3-.1-.6,0-.8,0c-.5,0-.6-.4-.6-.9,0-.7,0-1.8,0-3.3h0Z"/>
  <path  d="M209.3,110v2.7c0,1.4,0,2.7,0,3.3,0,.5-.1.8-.4.9-.1,0-.3,0-.6,0s-.2,0-.2.1.1.2.3.2c.6,0,1.6,0,2,0,.9,0,2,0,4.3,0s.7,0,.8-.4c0-.3.2-1.4.2-1.7s0-.3-.1-.3-.1,0-.2.2c-.1.6-.3,1-.7,1.1-.4.2-1,.2-1.5.2-1.6,0-1.8-.2-1.9-1.3h0c0-.4,0-1.9,0-2.4v-1.2c0,0,0-.2,0-.2.4,0,1.9,0,2.2,0,.6,0,.8.3.9.6,0,.2,0,.4,0,.6,0,0,0,.1.1.1s.1-.2.1-.3,0-.7,0-1c0-.8.1-1,.1-1.1s0-.1-.1-.1-.1,0-.2.2c-.1.2-.4.2-.7.2-.4,0-2.1,0-2.5,0s-.1,0-.1-.2v-3.9c0-.1,0-.2.1-.2.3,0,1.9,0,2.2,0,.8,0,.9.3,1,.6,0,.2,0,.4,0,.6s0,.2.1.2.1,0,.2-.2c0-.2,0-.9,0-1,0-.7.1-.9.1-1s0-.1,0-.1-.2,0-.2,0c-.1,0-.4,0-.7,0-.3,0-3.4,0-3.9,0s-1.4,0-2.2,0-.3,0-.3.1,0,.1.3.1.5,0,.6,0c.5.1.6.4.7.9,0,.5,0,.9,0,3.3h0Z"/>
  <path  d="M226.4,117.1c.7.3,1.4.4,2.3.4s1.7-.1,2.5-.6c1.1-.7,1.5-1.8,1.5-2.7,0-1.5-.7-2.5-2.5-4l-.4-.3c-1.3-1-1.6-1.5-1.6-2.2s.7-1.6,1.8-1.6,1.5.5,1.7.8c.3.4.4.9.4,1s0,.3.2.3.2-.1.2-.5c0-1.2,0-1.7,0-1.9s0-.1-.2-.2c-.4-.1-1.1-.3-2.1-.3-2.2,0-3.6,1.2-3.6,2.9s.6,2.4,2.3,3.7l.7.6c1.3,1,1.5,1.7,1.5,2.5s-.7,1.8-2.1,1.8-1.9-.4-2.2-1.6c0-.3-.1-.6-.1-.8s0-.3-.2-.3-.2.2-.2.4c0,.2,0,1.2,0,2s0,.4.3.5h0Z"/>
  <path  d="M243.6,117.1c.7.3,1.4.4,2.3.4s1.7-.1,2.5-.6c1.1-.7,1.5-1.8,1.5-2.7,0-1.5-.7-2.5-2.6-4l-.4-.3c-1.3-1-1.7-1.5-1.7-2.2s.7-1.6,1.9-1.6,1.5.5,1.7.8c.3.4.4.9.4,1s0,.3.1.3.2-.1.2-.5c0-1.2,0-1.7,0-1.9s0-.1-.2-.2c-.4-.1-1.1-.3-2.1-.3-2.2,0-3.6,1.2-3.6,2.9s.6,2.4,2.3,3.7l.7.6c1.3,1,1.5,1.7,1.5,2.5s-.7,1.8-2.1,1.8-1.9-.4-2.2-1.6c0-.3-.1-.6-.1-.8s0-.3-.1-.3-.2.2-.2.4c0,.2,0,1.2,0,2s0,.4.3.5h0Z"/>
  <path  d="M261.7,110v2.7c0,1.5,0,2.7,0,3.4,0,.5-.1.7-.5.8-.1,0-.3,0-.6,0s-.2,0-.2.1.1.2.3.2c.6,0,1.6,0,2,0s1.4,0,2.4,0,.3,0,.3-.2,0-.1-.2-.1-.6,0-.8,0c-.5,0-.6-.3-.6-.8,0-.7,0-1.9,0-3.4v-2.7c0-2.4,0-2.8,0-3.3,0-.5.2-.8.6-.9.2,0,.3,0,.5,0s.2,0,.2-.2-.1-.1-.3-.1c-.6,0-1.5,0-1.9,0s-1.4,0-2,0-.4,0-.4.1,0,.2.3.2.4,0,.6,0c.3,0,.5.3.5.9,0,.5,0,.9,0,3.3h0Z"/>
  <path  d="M274.8,111.4c0-2.7,1.8-6.1,6.4-6.1s6.3,2.3,6.3,5.8-2.5,6.4-6.4,6.4-6.3-3.3-6.3-6.1h0ZM285.3,111.7c0-3.5-2-5.6-4.6-5.6s-3.8,1-3.8,4.9,1.8,5.8,4.8,5.8,3.6-.5,3.6-5h0Z"/>
  <path  d="M299.8,115.1l-.2-6.5h0c.3.3,2,2.2,3.7,3.9,1.6,1.6,3.6,3.6,4.6,4.6.2.2.4.3.5.3s.2-.1.2-.5l.2-9.8c0-.9.1-1.2.6-1.3.2,0,.3,0,.5,0s.3,0,.3-.1-.2-.1-.4-.1c-.8,0-1.4,0-1.5,0-.3,0-1.1,0-1.9,0s-.4,0-.4.1,0,.1.2.1.6,0,.8,0c.4.2.5.5.5,1.4l.2,7h0c-.3-.2-2.4-2.5-3.4-3.5-2.3-2.3-4.6-4.8-4.8-5-.3-.3-.4-.5-.6-.5s-.2.2-.2.5v9.2c-.2,1.4-.2,1.8-.6,1.9-.2,0-.5,0-.7,0s-.2,0-.2.1.1.2.3.2c.8,0,1.5,0,1.7,0,.3,0,.9,0,1.9,0s.4,0,.4-.2,0-.1-.3-.1c-.2,0-.5,0-.8-.1-.3-.1-.5-.5-.5-1.7h0Z"/>
  <path  d="M322.4,113.2c0,0-.1,0-.1.1l-.8,2.2c-.2.4-.2.8-.2.9,0,.3.1.5.6.5h.2c.2,0,.2,0,.2.1s0,.2-.3.2c-.5,0-1.2,0-1.7,0s-1,0-1.8,0-.3,0-.3-.2,0-.1.2-.1.4,0,.5,0c.7,0,1-.6,1.3-1.4l3.9-9.8c.2-.5.3-.6.4-.6s.2.1.4.5c.4.9,2.9,7.2,3.9,9.6.6,1.4,1,1.6,1.4,1.7.2,0,.5,0,.7,0s.2,0,.2.1-.1.2-.7.2-1.7,0-2.9,0c-.3,0-.5,0-.5-.1s0-.1.2-.1c.1,0,.2-.2.1-.4l-1.2-3.3c0,0,0-.1-.2-.1h-3.5ZM325.6,112.4c0,0,0,0,0,0l-1.4-3.8c0,0,0-.1,0-.1s0,0,0,.1l-1.4,3.8c0,0,0,.1,0,.1h2.9Z"/>
  <path  d="M342.6,112.7v-2.7c0-2.4,0-2.8,0-3.3,0-.5.2-.8.6-.9.2,0,.4,0,.6,0s.3,0,.3-.1-.1-.1-.3-.1c-.6,0-1.7,0-2.1,0s-1.4,0-2.1,0-.3,0-.3.1,0,.1.3.1.4,0,.5,0c.5.1.6.4.7.9,0,.5,0,.9,0,3.3v2.7c0,1.4,0,2.7,0,3.3,0,.5-.1.8-.4.9-.1,0-.3,0-.6,0s-.3,0-.3.1.1.2.3.2c.6,0,1.6,0,2,0,1.3,0,2.3,0,4.5,0s.9,0,1-.4c.1-.4.2-1.6.2-1.8s0-.3-.1-.3-.2,0-.2.2c0,.3-.2.7-.4.9-.4.4-1,.4-1.8.4-1.2,0-1.6-.1-1.9-.3-.3-.3-.3-1.4-.3-3.3h0Z"/>
  <path  d="M320.5,87.1v8.9l4.3,1.4v1.1h-11.4v-1.1l3.5-1.4v-25.9l-3.5-1.2v-1l7.1-1.8v2.8c2.4-1.4,5-2.4,6.2-2.4,4.4,0,7.7,4.3,7.7,10s-6.3,11-11.3,10.9c-.8,0-1.8,0-2.6-.4h0ZM320.5,85.3c.9,0,1.5.1,2.3.1,4.9,0,7.8-2,7.8-7.6s-2.6-8.6-6.6-8.6-2.5.2-3.5.7v15.3h0Z"/>
  <path  d="M342.9,68.8h6v-2h-6v-3.3c0-2.4.5-4,1.6-4.9.9-.8,2.4-1.3,3.6-1.3s.3,0,.6,0l1.1,2.7h2.6v-3.8c-1-.4-2.4-.7-4.1-.7-5.5,0-9,3.4-9,8.6v2.6h-3.4v2h3.4v15.9l-3.4,1.6v1.1h11.1v-1.1l-4.2-1.6v-15.9h0Z"/>
  <path  d="M127.6,86.3h.4c0,.1,2.5.7,2.5.7,1.9.5,3.9.7,5.3.7,5.7,0,9.3-3.3,9.3-8.4s-.4-3.3-1.3-4.6c-.8-1.3-1.2-1.6-4-3.4l-4.6-3.1c-3.1-2-3.7-2.9-3.7-5,0-3,2.1-4.4,6.5-4.4s1,0,2.2.1h.4s2.1,5.6,2.1,5.6h1.6v-6.5h-.7c0-.1-1.8-.6-1.8-.6-.6-.1-1.3-.3-2.3-.4-1.2-.1-2.5-.3-3.3-.3-5,0-8.4,3.3-8.4,8.1s.3,2.7,1,3.9c.8,1.4,1.6,2.1,3.9,3.6l4.3,2.9c3.1,2.1,3.8,3.1,3.8,5.4,0,3.2-2.1,4.9-6.2,4.9s-2.1,0-3.2-.2l-2.1-5.7h-1.6v6.7h0Z"/>
  <path  d="M163.1,67.2c-1.9-.7-3.4-1-4.9-1-6.4,0-10.6,4.6-10.6,11.4s3.4,10.2,8.3,10.2,3.1-.3,4.9-.9l2-.7h.4c0-.1-.2-1.5-.2-1.5h-.4c-2.1.5-2.6.5-3.9.5-2.6,0-4.2-.7-5.5-2.4-1.2-1.5-1.9-3.8-1.9-6.2,0-5.1,3-8.9,6.8-8.9s.4,0,.8,0l1.7,3.9h2.4v-4.5h0Z"/>
  <path  d="M165.2,87.4h9.7v-1.2l-2.9-1.6v-14.9c.8-.3,2.4-.5,3.6-.5,3.3,0,4.8,1.6,4.8,5.3v10l-3.1,1.6v1.2h9.8v-1.2l-3.3-1.6v-11.1c0-4.5-2.1-7.3-5.4-7.3s-3,.7-5.9,2.2l-.5.2v-14.2l-7,1.9v1l3.5,1.2v26.1l-3.3,1.6v1.2h0Z"/>
  <path  d="M201.7,73.2l4.6,14.2h1.8l6.9-18.2,2.4-1.4v-1.1h-8v1.1l3,1.4-4.3,13v-.4c-.4-1.2-.5-1.5-.8-2.3l-4.2-12.8h-1.2l-5.5,15.5v-.6c-.1,0-.5-1.2-.5-1.2l-.4-1.2-3.4-10.2,3.1-1.2v-1.1h-9.4v1.1l2.5,1.2,6.5,18.4h1.8l5.1-14.2h0Z"/>
  <path  d="M219.2,71.8v-3.9c3-1,5.1-1.5,6.9-1.5,3.9,0,5.7,1.7,5.7,5.1v11.5c0,1.1.1,1.3,1.1,1.6l2.2.7v.9l-2.8,1c-.3.1-1.1.3-1.7.3h-.2c-1.2,0-1.9-.7-2.1-2.1l-.5.3-1.3.7c-.9.5-1.5.7-1.8.8-.5.2-1.2.3-1.9.3-3.2,0-5.4-2.2-5.4-5.2s1.5-4.3,4.2-4.9c1.6-.4,3.9-.7,6.6-1v-4.7c0-2.7-1-3.6-4-3.6s-.6,0-1.1,0l-1.7,3.6h-2.4ZM228.2,77.6c-1.5.2-2.7.4-4.1.8-1.9.5-2.7,1.5-2.7,3.3s1.5,3.5,3.8,3.5,1,0,1.5-.2c.1,0,.5,0,1.3-.3,0,0,.2,0,.3,0v-7h0Z"/>
  <path  d="M236.7,87.3h10.9v-1.1l-4.1-1.5v-15c.9-.4,2.1-.7,3-.7s.5,0,1,0l1.2,2.6h2.7v-4.8c-.7-.4-1.3-.6-2-.6-1.1,0-2.9.7-5.5,2.2l-.4.2v-2.8l-6.9,1.7v1l3.3,1v15l-3.3,1.5v1.1h0Z"/>
  <polygon  points="252.9 87.4 268.7 87.4 268.7 81 267.5 81 265.3 85.5 257.5 85.5 268.7 68.2 268.7 66.8 253.7 66.8 253.7 72.6 255.1 72.6 257 68.7 264 68.7 252.9 86 252.9 87.4 252.9 87.4"/>
  <path  d="M270.9,87.6v-1.1l3.4-1.5v-26.8l-3.6-1.1v-1l7.1-1.7v30.6l3.4,1.5v1.1h-10.2ZM282,75l7.4,10.2,2.9,1.3v1.1h-6l-8-11.3,6.8-7.4-2.6-1.1v-1h9.2v1l-3.9,1.3-5.8,5.8h0Z"/>
  <path  d="M292.7,77.4c0-6.8,4.1-11.3,10.1-11.3s9.7,4.3,9.7,10.5-4.3,11.4-10.3,11.4-9.5-4.4-9.5-10.6h0ZM296.9,76.7c0,5.8,2.2,9.3,5.9,9.3s5.5-3.1,5.5-8.4-2.2-9.6-5.9-9.6-5.5,3.2-5.5,8.7h0Z"/>
</svg>