<?xml version="1.0" encoding="utf-8"?>
<!-- Generator: Adobe Illustrator 23.1.0, SVG Export Plug-In . SVG Version: 6.00 Build 0)  -->
<svg version="1.1" xmlns="http://www.w3.org/2000/svg" xmlns:xlink="http://www.w3.org/1999/xlink" x="0px" y="0px"
	 viewBox="0 0 1962.28 2020" style="enable-background:new 0 0 1962.28 2020;" xml:space="preserve">
<style type="text/css">
	.st0{fill:none;}
	.st1{fill:#FFFFFF;}
</style>
<g id="BG">
</g>
<g id="Logo">
	<g>
		<rect y="0" class="st0" width="1962.28" height="2020"/>
		<g>
			<path d="M966.94,1765.77c-189.07-87.93-353.29-232-462.42-405.67c-109.09-173.59-166.48-375.53-180.61-635.52
				c-4.57-84.09-4.57-189.2,0-321.35l0.96-27.86l27.5-4.59c209.09-34.91,420.69-52.61,628.95-52.61
				c208.25,0,419.86,17.7,628.94,52.61l27.5,4.59l0.97,27.86c4.57,132.14,4.57,237.26,0,321.35
				c-14.13,259.99-71.52,461.94-180.61,635.52c-109.13,173.66-273.35,317.73-462.42,405.67l-14.38,6.69L966.94,1765.77z"/>
			<g>
				<g>
					<path class="st1" d="M688.96,1197.8c-4.05,0.77-6.22-1.38-6.81-4.11c-1.6-7.38-5.75-32.65-7.05-40.09
						c-0.72-4.09,0.54-6.33,4.22-7.53c18.02-5.83,48.36-16.09,72.78-24.69c6.28-2.22,8.24-4.71,11.77-10.34
						c10.22-16.3,35.32-60.6,47.17-83.56c1.68-3.26,1.55-7.15-0.34-10.29l-5.4-9c-1.85-3.09-6.2-6.34-9.69-7.23
						c-24.82-6.35-57.67-14.4-73.18-18.13c-3.45-0.83-7.04-0.69-10.42,0.39l-2.84,0.91c23.79,8.1,44.04,15.36,69.71,25.13
						c2.21,0.84,4.61,3.4,5.29,5.66l2.36,7.75c0.96,3.15,0.65,6.53-0.84,9.46c-10.9,21.36-29.81,49.67-44.88,67.87
						c-2.27,2.74-5.18,4.82-8.51,6.07c-14.58,5.46-41.11,14.23-52.67,17.2c-2.3,0.59-3.44,0.32-5.35-1.01
						c-8.4-5.88-25.76-22.16-25.76-22.16s-1.46,17.7-1.55,25.63c-0.01,0.88,0.16,1.75,0.5,2.56c2.96,6.93,8.19,20.19,10.37,26.93
						c0.57,1.75,1.02,3.28,1.47,5.07c2.92,11.64,10.97,45.9,10.97,45.9c1.17,5.19,4.1,6.99,8.68,6c5.9-1.28,24.77-6.58,32.5-9.15
						c1.19-0.4,2.25-1.03,3.17-1.88c4.99-4.57,13.36-12.29,13.36-12.29S699.62,1195.77,688.96,1197.8z"/>
					<path class="st1" d="M731.73,1092.67c9.64-11.63,22.39-30.29,33.06-47.85l-78.94,65.09c12.94-3.94,30.49-9.88,41.04-13.83
						C728.8,1095.37,730.47,1094.19,731.73,1092.67z"/>
					<path class="st1" d="M733.58,830.43l-14.12,1.21c-1.13,0.1-2.02,1-2.11,2.13l-1.32,16.75c-0.07,0.87,0.72,1.56,1.58,1.37
						l14.27-3.16c1.71-0.38,3.78-1.96,4.48-3.57c1.74-4,2.21-8.65,0.42-12.82C736.23,831.09,734.94,830.32,733.58,830.43z"/>
					<path class="st1" d="M596.06,1040.1l21.41,25.13l6.3-43.45C611.37,1023.68,599.98,1031.65,596.06,1040.1z"/>
					<path class="st1" d="M1294.81,1035.54c-8.73-15.52-52.24-74.41-106.69-131.2c-1.98-2.06-4.36-3.71-6.98-4.86l-8.88-3.86
						c0,0,15.83,69.25,22.93,107.11c0.9,4.82,3.26,9.24,6.74,12.69c24.33,24.11,40.38,42.88,53.81,62.72
						c5.84,8.62,9.21,18.65,9.91,29.04c3.7,55,1.92,130.58-4.21,172.69c-1.24,8.54-3.31,11.55-8.88,16.06
						c-52.68,42.61-139.82,117.62-177.22,154.62c-3.94,3.9-5.39,5.65-7.8,9.29c-4.91,7.43-10.17,18.41-10.17,18.41
						s-8.88-27.22-10.85-42.07c-0.92-6.94-1-8.84,0.01-15.91c4.51-31.79,26.73-105.12,30.36-116.1c0.31-0.95,0.47-1.94,0.47-2.94
						l0-6.89c-8.05,16.81-49.4,109.84-58.15,141.82c-1.84,6.74-1.54,9.39,0.22,14.43c5.36,15.41,20.99,53.6,28.17,69.24
						c0,0,16.99-31.84,26.84-47.88c2.76-4.49,6.13-8.53,9.99-12.11c29.4-27.21,135.16-115.5,184.56-152.64
						c6.63-4.98,8.64-8.51,10.44-15.4c19.99-76.32,28.38-164.07,18.6-246.89C1297.63,1041.5,1296.49,1038.53,1294.81,1035.54z"/>
					<path class="st1" d="M1078.22,812.31c2.02-3.51,2.78-7.59,2.09-11.57c-1.65-9.59-4.14-20.88-6.16-29.41
						c-0.38-1.6-1.46-2.93-2.94-3.64l-14.89-7.13c-1.96-0.94-4.16-1.24-6.3-0.87c-35.96,6.35-73.79,13.83-102.39,20.33
						c-2.34,0.53-4.33,2.02-5.54,4.1l-8.9,15.41c-0.69,1.19-0.01,2.7,1.34,2.96c7.49,1.41,22.79,4.15,28.03,4.93
						c3.22,0.48,4.31,0.39,6.96-0.71c18.12-7.52,47.76-19.03,69.79-27.02c1.75-0.63,3.63-0.66,5.4-0.09l10.12,3.24
						c1.47,0.47,2.71,1.48,3.47,2.83c2.77,4.88,5.66,10.23,7.39,13.76c1.23,2.51,0.54,5.86-1.56,8.9
						c-7.47,10.82-20.28,27.89-29.07,38.55c-1.94,2.35-2.58,5.49-1.73,8.42c5.16,17.83,16.38,54.48,22.36,72.01
						c0.74,2.15,1.82,3.79,3.5,5.33l8.44,7.68c0,0-13.4-62.01-16.6-79.75c-0.5-2.77-0.31-5.59,1.28-7.91
						C1059.39,842.29,1072.07,823.01,1078.22,812.31z"/>
					<path class="st1" d="M1399.54,863.29c-1.03-4.69-2.56-6.67-6.46-9.57c-40.24-29.94-112.63-72.45-155.69-90.53
						c-5.56-2.33-11.75-2.47-17.41-0.4c-20.53,7.52-53.37,21.34-87.49,37.36c0,0,15.02,1.12,22.2,1.95
						c3.66,0.42,5.08,0.35,8.64-0.62c10.46-2.84,29.05-7.45,43.69-10.77c7.14-1.62,14.62-0.03,20.49,4.35
						c20.06,14.94,52.3,40.91,72.92,58.24c3.59,3.01,7.66,5.44,12.01,7.18c31.45,12.61,45.26,18.9,52.31,22.52
						c4.94,2.54,8.49,7.09,9.88,12.47c8.17,31.55,13.64,79.89,16.48,114.78c0.53,6.47-0.33,12.94-2.5,19.06
						c-8.86,25.04-30.87,66.64-43.18,86.53c-1.1,1.78-2.26,3.16-4.4,5c-4.36,3.76-12.05,9.96-17.67,14.31
						c-1.1,0.85-1.75,2.14-1.76,3.52c-0.13,13.53-2.73,39.67-2.73,39.67c30.18-37.85,58.89-86.91,84.39-139.04
						c2.1-4.29,2.9-6.7,3.33-10.72C1412.58,972.67,1408.99,906.25,1399.54,863.29z"/>
					<path class="st1" d="M998.64,1540.25c-7.1-15.96-44.06-103.41-54.06-136.88c-3.53-11.84-3.98-15.05-2.62-28.39
						c8.41-82.24,37.95-213.1,42.6-231.04c0.98-3.79,0.85-4.82,0.17-8.68c-1.2-6.82-5.16-30.28-5.16-30.28
						c-13.36,30.95-60.94,158.81-78.51,234.06c-3.31,14.18-2.73,17.98,0.25,25.7c25.27,65.49,89.65,183.77,101.49,201.65
						l-2.65-20.61C999.9,1543.86,999.43,1542,998.64,1540.25z"/>
					<path class="st1" d="M941.3,1545.35c0,0-14.03-9.1-18.34-11.96c-4.47-2.97-6.01-4.26-8.13-6.17
						c-29.26-26.51-131.96-152.71-162.74-207.57c-5.16-9.2-6.67-13.54-6.17-22.81c0.57-10.57,2.62-30.99,4.71-42.97
						c1.3-7.45,3.01-12.39,9.35-18.14c17.45-15.85,45.65-44.17,60.38-59.17c6.44-6.55,9.68-10.73,13.11-17.16
						c13.5-25.32,54.8-114.99,68.63-151.85c2.45-6.52,2.6-8.36,1.66-15.16c-2.65-19.31-18.06-69.19-18.06-69.19l-1.32,16.69
						c-0.09,1.15-0.04,2.3,0.15,3.44c1.23,7.22,5.91,35.81,5.76,50.51c-0.05,5.06-0.3,6.92-3.03,12.29
						c-20.73,40.78-101.65,149.55-152.79,208.42c-5.76,6.63-7.4,11.03-8.99,18.53c-2.64,12.44-5.64,40.81-7.57,63.37
						c-1.04,12.12-0.23,16.26,7.47,29.07c30.86,51.28,135.87,174.12,170.12,202.58c2.26,1.88,4.68,3.5,7.26,4.9
						c12.05,6.49,44.99,22.8,44.99,22.8l-5.09-8.93C942.33,1546.25,941.86,1545.74,941.3,1545.35z"/>
					<path class="st1" d="M788.76,813.62l65.24-20.41c3.84-1.17,7.08-3.79,9.02-7.3l34.78-59.91c0.83-1.42-0.21-3.2-1.86-3.18
						l-29.73,0.4c-2.57,0.03-5.85,0.55-8.29,1.37c-25.85,8.63-62.74,25.02-83.5,35.93c-2.34,1.23-4.53,3.22-6.19,5.27l-31.41,38.67
						c-1.03,1.27-2.36,2.27-3.86,2.91l-20.35,8.63c-0.98,0.41-1.76,1.18-2.21,2.14l-0.95,2.05c0,0,42.98-1.35,57.46-2.45
						C774.8,817.14,781.19,815.92,788.76,813.62z"/>
					<path class="st1" d="M908.29,672.39c82.15-6.18,176.56-4.43,199.45-3.89c3.42,0.08,6.8,0.66,10.04,1.73l16.77,5.6
						c-41.23,2.17-140.84,11.05-181.15,17.98l14.21,2.22c1.01,0.16,2.01,0.21,3.03,0.14c29.82-1.85,88.2-3.72,113.83-4.09
						c6.25-0.09,9.51,0.48,15.88,2.91c14.92,5.7,44.87,19.28,57.23,25.55c6.47,3.28,10.98,4.38,17.6,4.65
						c13.4,0.55,33.9,1.97,49.07,3.58c4.11,0.44,8.1,1.62,11.8,3.48c31.18,15.69,68.36,37.96,93.83,55.08
						c1.49,1,3.14,1.69,4.91,2.04l12.59,2.48c0,0-40.38-41.29-56.3-55.33c-2.29-2.03-4.79-3.8-7.45-5.32
						c-60.16-34.41-114.25-62.47-144.73-75.28c-4.89-2.05-10.05-3.3-15.33-3.7c-93.06-7.05-190.49-5.32-262.48,1
						c-5.14,0.45-9.24,2.94-11.68,6.49c-2.8,4.08-7.41,11.45-11.6,18.25c-2.05,3.32-4.56,6.31-7.49,8.88
						c-12.98,11.36-34.79,29.72-48.6,40.13c-1.19,0.9-1.79,1.35-2.74,2c-5.75,3.95-24.86,16.54-28.32,18.81
						c-1.32,0.86-1.62,1.1-2.58,2.34c-1.11,1.43-6.84,8.79-6.84,8.79c57.31-32.22,130.31-72.64,155.31-83.63
						C900.27,673.67,904.22,672.69,908.29,672.39z"/>
					<path class="st1" d="M640.76,854.18c-0.71,0.95-1.59,1.76-2.56,2.45c-51,36.39-79.57,59.57-90.9,69.09
						c-4.6,4.51-9,8.9-13.02,13.07c-3.6,3.73-4.44,5.13-4.68,8.08c-0.2,2.5-0.37,5.84-0.36,7.77c0,1.08,0.28,1.93,0.88,2.83
						c0.72,1.08,4.75,5.66,5.7,6.61c0.44,0.44,1.11,0.59,1.62,0.23c7.55-5.3,18.15-13.18,27.74-20.5c0.77-0.59,2.18-2.02,2.71-2.93
						c1.62-2.79,3.76-6.82,4.97-9.37c0.8-1.69,1.33-2.23,3.28-3.46c1.93-1.22,7.74-4.87,7.74-4.87s-4.34,17.85-7.45,24.02
						c-1.07,2.13-2.09,3.61-2.89,4.45c-7.51,7.83-21.14,23.05-27.93,31.4c-2.27,2.79-1.51,6.29,0.33,9.02
						c6.26,9.29,19.26,25.29,27.18,33.65c2.44,2.57,3.55,3.64,5.78,4.91c3.26,1.86,5.57,2.61,5.57,2.61s6.52-31.27,9.29-40.99
						c0.94-3.3,3-5.93,7.13-6.95c33.45-8.3,105.67-20.3,105.67-20.3c-7.6-9.09-32.99-35.23-40.67-41.83
						c-2.31-1.99-4.47-2.98-7.5-3.33c-9.33-1.07-39.92-3.3-39.92-3.3s2.65-2.93,4.62-4.94c1.82-1.86,2.88-2.57,5.34-3.42
						c37.5-12.99,87.51-31.9,116.75-44.1c6.35-2.65,9.38-4.52,14.45-9.75c2.2-2.28,6.66-7.26,9.2-10.3c0.52-0.62,0.8-1.08,0.94-1.87
						c0.16-0.91,0.38-2.56,0.38-2.56s-12.49,9.37-17.41,12.8c-4.54,3.16-7.46,4.61-12.81,6c-10.31,2.68-29.64,7.27-41.15,9.83
						c-3.14,0.7-4.65,0.73-7.49-0.31c-1.84-0.67-5.37-2.06-7.45-3.04c-2.27-1.06-3.3-1.21-5.75-0.66
						c-10.21,2.3-38.06,9.16-38.06,9.16s12.82-11.43,13.78-12.17c1.21-0.93,1.79-1.25,3.84-2.07c9.65-3.86,21.56-8.16,31.62-12.24
						c2.3-0.94,3.28-2.05,3.47-4.32c0.64-7.74,2.83-21.7,4.16-29.03c0.38-2.09,1.04-3.23,2.71-4.55
						c5.86-4.65,27.53-21.25,32.68-25.05c0.33-0.32,0.65-0.63,0.98-0.94l5.83-7.2c-15.41,8.96-42.94,25.29-57.13,34.24
						c-6.11,3.85-9.08,5.9-15.09,10.64c-0.67,0.53-1.25,1.14-1.78,1.81C661.33,827.21,646.12,846.94,640.76,854.18z"/>
				</g>
				<g>
					<g>
						<path class="st1" d="M617.84,569.65c0-29.31,0-58.62,0-87.94c37.36-3.31,74.76-6.11,112.18-8.4c0,4.79,0,9.59,0,14.38
							c-32.62,1.99-65.23,4.38-97.81,7.15c0,7.28,0,14.56,0,21.85c28.84-2.45,57.69-4.6,86.56-6.44c0,4.79,0,9.59,0,14.38
							c-28.87,1.84-57.73,3.99-86.56,6.44c0,7.65,0,15.3,0,22.96c32.58-2.77,65.19-5.15,97.81-7.15c0,4.79,0,9.58,0,14.38
							C692.6,563.54,655.21,566.34,617.84,569.65z"/>
					</g>
					<g>
						<path class="st1" d="M465.14,586.05c0-29.31,0-58.62,0-87.94c29.57-3.74,59.16-7.15,88.79-10.24
							c5.13-0.54,9.3-0.36,12.77,0.52c3.75,0.96,6.77,2.6,8.97,4.86c2.19,2.25,3.71,5.05,4.51,8.32c0.67,2.74,1.01,5.74,1.01,8.92
							c0,3.42,0,6.85,0,10.27c0,3.19-0.34,6.24-1.01,9.07c-0.82,3.41-2.36,6.48-4.56,9.12c-2.22,2.65-5.26,4.83-9.01,6.49
							c-3.43,1.51-7.58,2.5-12.67,3.03c-24.84,2.59-49.66,5.41-74.46,8.45c0,9.11,0,18.23,0,27.34
							C474.68,584.85,469.91,585.45,465.14,586.05z M479.46,542.55c26.32-3.23,52.67-6.21,79.03-8.93c4.52-0.47,8.2-4.52,8.19-9.05
							c0-5.14,0-10.28,0-15.42c0-4.53-3.68-7.84-8.19-7.37c-26.36,2.72-52.71,5.7-79.03,8.93
							C479.46,521.32,479.46,531.93,479.46,542.55z"/>
					</g>
					<g>
						<path class="st1" d="M1261.08,563.11c-5.56-0.38-10.05-1.03-13.76-2.01c-4.22-1.12-7.71-2.81-10.35-5.02
							c-2.92-2.44-4.96-5.52-6.05-9.15c-0.89-2.97-1.33-6.32-1.33-10.24c0-13.06,0-26.12,0-39.18c0-3.92,0.43-7.22,1.33-10.08
							c1.09-3.5,3.13-6.33,6.05-8.41c2.63-1.88,6.12-3.13,10.34-3.7c3.7-0.5,8.2-0.56,13.76-0.18c19.48,1.33,38.95,2.79,58.41,4.4
							c5.56,0.46,10.06,1.2,13.75,2.25c4.22,1.21,7.7,2.98,10.33,5.26c2.92,2.52,4.95,5.66,6.04,9.32
							c0.89,2.99,1.32,6.35,1.32,10.27c0,13.06,0,26.12,0,39.18c0,3.92-0.43,7.21-1.33,10.04c-1.08,3.47-3.11,6.24-6.04,8.25
							c-2.63,1.82-6.1,2.98-10.33,3.46c-3.71,0.42-8.21,0.39-13.75-0.06C1300.03,565.9,1280.56,564.44,1261.08,563.11z M1252.34,489
							c-4.53-0.3-8.21,3.15-8.21,7.68c0,14.23,0,28.47,0,42.7c0,4.53,3.69,8.44,8.21,8.74c2.41,0.16,4.83,0.32,7.24,0.48
							c0.52,0.05,1.06,0.09,1.65,0.13c19.38,1.32,38.75,2.78,58.12,4.38c0.37,0.02,0.74,0.05,1.11,0.07
							c2.59,0.21,5.18,0.43,7.77,0.65c4.53,0.38,8.21-2.98,8.2-7.51c0-14.23,0-28.47,0-42.7c0-4.53-3.68-8.53-8.2-8.91
							C1302.94,492.58,1277.65,490.67,1252.34,489z"/>
					</g>
					<g>
						<path class="st1" d="M1431.47,578.28c0-24.52,0-49.04,0-73.56c-17.15-1.89-34.31-3.67-51.48-5.34c0-4.79,0-9.59,0-14.38
							c39.12,3.81,78.2,8.18,117.23,13.11c0,4.79,0,9.59,0,14.38c-17.13-2.16-34.27-4.22-51.41-6.17c0,24.52,0,49.04,0,73.56
							C1441.02,579.34,1436.24,578.81,1431.47,578.28z"/>
					</g>
					<g>
						<path class="st1" d="M1079.83,554.77c0-29.31,0-58.62,0-87.94c37.46,0.9,74.92,2.31,112.36,4.23c0,4.79,0,9.59,0,14.38
							c-32.64-1.67-65.29-2.96-97.95-3.86c0,7.28,0,14.56,0,21.84c28.91,0.79,57.81,1.89,86.7,3.3c0,4.79,0,9.59,0,14.38
							c-28.89-1.4-57.79-2.5-86.7-3.3c0,7.65,0,15.3,0,22.96c32.66,0.9,65.31,2.18,97.95,3.86c0,4.79,0,9.58,0,14.38
							C1154.75,557.07,1117.29,555.66,1079.83,554.77z"/>
					</g>
					<g>
						<path class="st1" d="M955.38,553.67c-5.56,0.03-10.08-0.28-13.79-0.98c-4.22-0.8-7.71-2.23-10.36-4.25
							c-2.93-2.23-4.97-5.16-6.06-8.71c-0.89-2.91-1.33-6.22-1.33-10.14c0-12.95,0-25.91,0-38.86c0-8.4,2.19-14.75,6.51-18.84
							c4.31-4.09,11.38-6.06,22.25-6.14c27.75-0.19,55.5-0.1,83.25,0.26c0,4.79,0,9.59,0,14.38c-29.74-0.39-59.48-0.47-89.22-0.22
							c-4.54,0.04-8.23,3.76-8.23,8.29c0,13.65-0.01,27.3-0.01,40.95c0,0.6,0.01,1.2,0.01,1.79c0,4.52,3.69,8.17,8.23,8.13
							c2.39-0.02,4.78-0.04,7.18-0.05c0.54,0.01,1.11,0.02,1.72,0.01c24.1-0.15,48.21-0.09,72.31,0.18c0-7.65,0-15.3,0-22.96
							c-15.62-0.18-31.25-0.27-46.87-0.26c0.04-4.79,0.07-9.59,0.11-14.38c20.39,0,40.78,0.15,61.17,0.45c0,17.24,0,34.48,0,51.71
							C1013.29,553.61,984.34,553.48,955.38,553.67z"/>
					</g>
					<g>
						<path class="st1" d="M799.09,557.5c-5.56,0.25-10.07,0.1-13.78-0.46c-4.23-0.64-7.72-1.94-10.36-3.86
							c-2.92-2.11-4.96-4.96-6.05-8.47c-0.89-2.88-1.33-6.18-1.33-10.09c0-21.12,0-42.24,0-63.35c4.8-0.25,9.6-0.49,14.4-0.72
							c0,21.72,0,43.45,0,65.17c0,4.53,3.69,8.03,8.22,7.82c24.47-1.14,48.95-2.05,73.44-2.75c4.54-0.13,8.22-3.91,8.22-8.44
							c0-21.72,0-43.44,0-65.17c4.8-0.13,9.6-0.25,14.41-0.36c0,21.12,0,42.24,0,63.35c0,3.91-0.43,7.25-1.33,10.19
							c-1.09,3.59-3.13,6.59-6.05,8.93c-2.64,2.12-6.13,3.68-10.37,4.64c-3.71,0.84-8.22,1.32-13.78,1.49
							C836.18,555.99,817.63,556.68,799.09,557.5z"/>
					</g>
				</g>
				<path class="st1" d="M1609.93,402.55c-214.22-36.92-425.27-54.26-628.61-54.26c-203.34,0-414.4,17.33-628.61,54.26
					c-3.2,85.79-6.83,218.37-0.72,330.88c13.63,250.83,68.92,445.54,173.99,612.74c104.75,166.7,266.96,310.05,455.34,395.17
					c188.38-85.12,350.58-228.47,455.34-395.17c105.07-167.2,160.36-361.91,173.99-612.74
					C1616.77,620.92,1613.14,488.34,1609.93,402.55z M1586.53,732.13c-13.4,246.58-67.52,437.61-170.32,601.2
					c-102.79,163.57-256.92,298.68-434.88,381.45c-177.96-82.77-332.1-217.88-434.88-381.45
					c-102.8-163.58-156.92-354.62-170.32-601.2c-4.38-80.55-4.37-181.79,0.03-309.04c201.22-33.6,404.73-50.63,605.18-50.63
					s403.95,17.03,605.17,50.63C1590.9,550.33,1590.91,651.58,1586.53,732.13z"/>
			</g>
		</g>
	</g>
</g>
</svg>
