<?xml version="1.0" encoding="UTF-8"?>
<svg id="Layer_1" xmlns="http://www.w3.org/2000/svg" version="1.1" viewBox="0 0 480 120">
  <!-- Generator: Adobe Illustrator 30.4.0, SVG Export Plug-In . SVG Version: 2.1.4 Build 226)  -->
  <defs>
    <style>
      .st0 {
        fill: #fff;
      }
    </style>
  </defs>
  <path class="st0" d="M240,.9c-32.6,0-59.1,26.5-59.1,59.1s26.5,59.1,59.1,59.1,59.1-26.5,59.1-59.1S272.6.9,240,.9ZM289.3,62.2c0,.4-.4.7-.8.7-.4,0-.7-.4-.7-.8,0-.4.4-.7.8-.7.4,0,.7.4.7.8ZM288.4,47.4c-.4.2-.8,0-1-.4-.2-.4,0-.8.4-1s.8,0,1,.4c.2.4,0,.8-.4,1ZM287.8,44.3h0c.4-.2.8,0,1,.4.2.4,0,.8-.4,1-.4.2-.8,0-1-.4-.2-.4,0-.8.4-1ZM287.8,60.3h0c0,.4-.4.7-.8.7-.4,0-.7-.4-.7-.8,0-.4.4-.7.8-.7.4,0,.7.4.7.8ZM286.2,48.4c-.4.2-.8,0-1-.4-.2-.4,0-.8.4-1,.4-.2.8,0,1,.4.2.4,0,.8-.4,1ZM280.6,60.6c.4,0,.7.4.7.8h0c0,.4-.4.7-.8.7-.4,0-.7-.4-.7-.8,0-.4.4-.7.8-.7ZM281,41.9c.4-.2.8,0,1,.4.2.4,0,.8-.4,1-.4.2-.8,0-1-.4-.2-.4,0-.8.4-1ZM279.9,62.8c.4,0,.7.4.7.8h0c0,.4-.4.7-.8.7-.4,0-.7-.4-.7-.8,0-.4.4-.7.8-.7ZM279.2,66c0-.4.4-.7.8-.7.4,0,.7.4.7.8h0c0,.4-.4.7-.8.7s-.7-.4-.7-.8ZM280.1,68.2c0-.4.4-.7.8-.7.4,0,.7.4.7.8h0c0,.4-.4.7-.8.7-.4,0-.7-.4-.7-.8ZM280.9,49.9c-.2-.4,0-.8.4-1s.8,0,1,.4c.2.4,0,.8-.4,1s-.8,0-1-.4ZM281.6,59.7c0-.4.4-.7.8-.7.4,0,.7.4.7.8h0c0,.4-.4.7-.8.7-.4,0-.7-.4-.7-.8ZM283.2,42.7c.4-.2.8,0,1,.4.2.4,0,.8-.4,1-.4.2-.8,0-1-.4-.2-.4,0-.8.4-1ZM282.6,38.5c-.2-.4,0-.8.4-1,.4-.2.8,0,1,.4.2.4,0,.8-.4,1s-.8,0-1-.4ZM283.1,48.9c-.2-.4,0-.8.4-1s.8,0,1,.4h0c.2.4,0,.8-.4,1-.4.2-.8,0-1-.4ZM284.8,58.6c.4,0,.7.4.7.8h0c0,.4-.4.7-.8.7-.4,0-.7-.4-.7-.8,0-.4.4-.7.8-.7ZM284.2,79.4c.2-.3.7-.4,1-.2s.4.7.2,1c-.2.3-.7.4-1,.2s-.4-.7-.2-1ZM285.3,81.7c.2-.3.7-.4,1-.2s.4.7.2,1c-.2.3-.7.4-1,.2-.3-.2-.4-.7-.2-1ZM286.5,43.9c.2.4,0,.8-.4,1-.4.2-.8,0-1-.4-.2-.4,0-.8.4-1,.4-.2.8,0,1,.4ZM285,33.2c.4-.2.8,0,1,.4h0c.2.4,0,.8-.4,1-.4.2-.8,0-1-.4-.2-.4,0-.8.4-1ZM284.9,35.7h0c.2.4,0,.8-.4,1s-.8,0-1-.4c-.2-.4,0-.8.4-1,.4-.2.8,0,1,.4ZM282.7,34.1c.4-.2.8,0,1,.4s0,.8-.4,1-.8,0-1-.4,0-.8.4-1ZM282,39.7c.4-.2.8,0,1,.4s0,.8-.4,1c-.4.2-.8,0-1-.4-.2-.4,0-.8.4-1ZM280.5,35c.4-.2.8,0,1,.4s0,.8-.4,1-.8,0-1-.4,0-.8.4-1ZM280,50.2c.2.4,0,.8-.4,1s-.8,0-1-.4,0-.8.4-1c.4-.2.8,0,1,.4ZM278.3,36c.4-.2.8,0,1,.4h0c.2.4,0,.8-.4,1-.4.2-.8,0-1-.4s0-.8.4-1ZM274.9,38.2c.2.4,0,.8-.4,1s-.8,0-1-.4c-.2-.4,0-.8.4-1s.8,0,1,.4ZM272.5,24.8c.3-.3.7-.3,1,0,.3.3.3.7,0,1-.3.3-.7.3-1,0s-.3-.7,0-1ZM272.5,29.2h0c.3.3.3.7,0,1-.3.3-.7.3-1,0-.3-.3-.3-.7,0-1,.3-.3.7-.3,1,0ZM272.9,83.9c.3.2.4.7.2,1s-.7.4-1,.2-.4-.7-.2-1c.2-.3.7-.4,1-.2ZM270.3,25.5c.3-.3.7-.3,1,0h0c.3.3.3.7,0,1-.3.3-.7.3-1,0-.3-.3-.3-.7,0-1ZM266,27.1c.3-.3.7-.3,1,0,.3.3.3.7,0,1-.3.3-.7.3-1,0-.3-.3-.3-.7,0-1ZM254,15.1c.1-.4.6-.6.9-.4h0c.4.1.6.6.4.9-.1.4-.6.6-.9.4-.4-.1-.6-.6-.4-.9ZM253.2,17.3c.1-.4.6-.6.9-.4.4.1.6.6.4.9-.1.4-.6.6-.9.4-.4-.1-.6-.6-.4-.9ZM252.8,99c.4,0,.8.2.8.6,0,.4-.2.8-.6.8s-.8-.2-.8-.6c0-.4.2-.8.6-.8ZM251.8,97.5c0-.4.2-.8.6-.8s.8.2.8.6c0,.4-.2.8-.6.8-.4,0-.8-.2-.8-.6ZM253.2,101.4c.4,0,.8.2.8.6,0,.4-.2.8-.6.8-.4,0-.8-.2-.8-.6,0-.4.2-.8.6-.9ZM252.3,19.5c.1-.4.6-.6.9-.4h0c.4.1.6.6.4.9-.1.4-.6.6-.9.4-.4-.1-.6-.6-.4-.9ZM251.5,21.8c.1-.4.6-.6.9-.4.4.1.6.6.4.9-.1.4-.6.6-.9.4-.4-.1-.6-.6-.4-.9ZM246.9,101.7c.4-.1.8.1.9.5.1.4-.1.8-.5.9h0c-.4.1-.8-.1-.9-.5-.1-.4.1-.8.5-.9ZM244.9,100c.4-.1.8.1.9.5.1.4-.1.8-.5.9-.4.1-.8-.1-.9-.5-.1-.4.1-.8.5-.9ZM244.9,105.1c.4,0,.8.2.8.6,0,.4-.2.8-.6.8-.4,0-.8-.2-.8-.6,0-.4.2-.8.6-.8ZM231.9,98c0-.4.5-.6.9-.6.4,0,.6.5.6.9,0,.4-.5.6-.9.6h0c-.4,0-.6-.5-.6-.9ZM230.3,105.4c0-.4.5-.6.9-.6.4,0,.6.5.6.9s-.5.6-.9.6h0c-.4,0-.6-.5-.6-.9ZM223.3,19c-.4.2-.8,0-1-.4-.2-.4,0-.8.4-1h0c.4-.2.8,0,1,.4.2.4,0,.8-.4,1ZM222.6,11.2h0c.4-.2.8,0,1,.4.2.4,0,.8-.4,1-.4.2-.8,0-1-.4-.2-.4,0-.8.4-1ZM221,26.7c-.4.2-.8,0-1-.4-.2-.4,0-.8.4-1,.4-.2.8,0,1,.4.2.4,0,.8-.4,1ZM220.9,20.2c-.4.2-.8,0-1-.4-.2-.4,0-.8.4-1h0c.4-.2.8,0,1,.4.2.4,0,.8-.4,1ZM220.2,12.3c.4-.2.8,0,1,.4.2.4,0,.8-.4,1-.4.2-.8,0-1-.4-.2-.4,0-.8.4-1ZM220.4,23.6c.2.4,0,.8-.4,1s-.8,0-1-.4c-.2-.4,0-.8.4-1,.4-.2.8,0,1,.4ZM219.3,21.4c.2.4,0,.8-.4,1-.4.2-.8,0-1-.4-.2-.4,0-.8.4-1h0c.4-.2.8,0,1,.4ZM217,19.8c-.2-.4,0-.8.4-1,.4-.2.8,0,1,.4.2.4,0,.8-.4,1-.4.2-.8,0-1-.4ZM217.8,13.4h0c.4-.2.8,0,1,.4.2.4,0,.8-.4,1-.4.2-.8,0-1-.4-.2-.4,0-.8.4-1ZM217.3,17.1c.2.4,0,.8-.4,1-.4.2-.8,0-1-.4-.2-.4,0-.8.4-1h0c.4-.2.8,0,1,.4ZM215.3,14.5c.4-.2.8,0,1,.4.2.4,0,.8-.4,1-.4.2-.8,0-1-.4-.2-.4,0-.8.4-1ZM211.3,33.3c.3-.3.7-.3,1,0,.3.3.3.7,0,1-.3.3-.7.3-1,0-.3-.3-.3-.7,0-1h0ZM209.5,31.6h0c.3-.3.7-.3,1,0,.3.3.3.7,0,1s-.7.3-1,0c-.3-.3-.3-.7,0-1ZM208.6,29.9c.3.3.3.7,0,1-.3.3-.7.3-1,0-.3-.3-.3-.7,0-1h0c.3-.3.7-.3,1,0ZM207.5,78.7c.2.4,0,.8-.3,1-.4.2-.8,0-1-.3-.2-.4,0-.8.3-1,.4-.2.8,0,1,.3ZM205.8,29.3c-.3-.3-.3-.7,0-1,.3-.3.7-.3,1,0,.3.3.3.7,0,1-.3.3-.7.3-1,0ZM207.7,80.7c.4-.2.8,0,1,.3.2.4,0,.8-.3,1-.4.2-.8,0-1-.3-.2-.4,0-.8.3-1ZM206.4,20.8c.3-.3.7-.3,1,0,.3.3.3.7,0,1-.3.3-.7.3-1,0-.3-.3-.3-.7,0-1h0ZM204.8,22.6h0c.3-.3.7-.3,1,0,.3.3.3.7,0,1-.3.3-.7.3-1,0-.3-.3-.3-.7,0-1ZM203.1,48.6c.1-.4.5-.6.9-.5.4.1.6.5.5.9-.1.4-.5.6-.9.5-.4-.1-.6-.5-.5-.9h0ZM204,41.2c.4.1.6.5.5.9-.1.4-.5.6-.9.5-.4-.1-.6-.5-.5-.9h0c.1-.4.5-.6.9-.5ZM203.9,26.6h0c.3-.3.7-.3,1,0,.3.3.3.7,0,1-.3.3-.7.3-1,0-.3-.3-.3-.7,0-1ZM204.4,47.2c-.4-.1-.6-.5-.5-.9.1-.4.5-.6.9-.5.4.1.6.5.5.9s-.5.6-.9.5ZM204.6,44.8c-.4-.1-.6-.5-.5-.9h0c.1-.4.5-.6.9-.5.4.1.6.5.5.9-.1.4-.5.6-.9.5ZM201.6,26.2c.3-.3.7-.3,1,0,.3.3.3.7,0,1-.3.3-.7.3-1,0-.3-.3-.3-.7,0-1h0ZM202.2,41.4c-.1.4-.5.6-.9.5-.4-.1-.6-.5-.5-.9.1-.4.5-.6.9-.5.4.1.6.5.5.9ZM200,28c.3-.3.7-.3,1,0,.3.3.3.7,0,1-.3.3-.7.3-1,0s-.3-.7,0-1ZM200.7,52.1c-.1.4-.5.6-.9.5s-.6-.5-.5-.9c.1-.4.5-.6.9-.5s.6.5.5.9ZM200.3,42.9c-.1.4-.5.6-.9.5-.4-.1-.6-.5-.5-.9s.5-.6.9-.5h0c.4.1.6.5.5.9ZM198.4,29.7h0c.3-.3.7-.3,1,0,.3.3.3.7,0,1-.3.3-.7.3-1,0-.3-.3-.3-.7,0-1ZM196.8,49.4c-.1.4-.5.6-.9.5-.4-.1-.6-.5-.5-.9.1-.4.5-.6.9-.5.4.1.6.5.5.9ZM197.1,63.3c0,.4-.3.8-.7.8-.4,0-.8-.3-.8-.7h0c0-.4.3-.8.7-.8.4,0,.8.3.8.7ZM194.8,39.3c.1-.4.5-.6.9-.5.4.1.6.5.5.9-.1.4-.5.6-.9.5-.4-.1-.6-.5-.5-.9ZM195.1,65.3c0,.4-.3.8-.7.8-.4,0-.8-.3-.8-.7,0-.4.3-.7.7-.8.4,0,.8.3.8.7ZM194.9,61.6c0,.4-.3.7-.7.8h0c-.4,0-.8-.3-.8-.7,0-.4.3-.8.7-.8.4,0,.8.3.8.7ZM194.5,49.8c-.1.4-.5.6-.9.5-.4-.1-.6-.5-.5-.9.1-.4.5-.6.9-.5.4.1.6.5.5.9ZM192.9,40.9c.1-.4.5-.6.9-.5.4.1.6.5.5.9h0c-.1.4-.5.6-.9.5-.4-.1-.6-.5-.5-.9ZM191.7,43c.1-.4.5-.6.9-.5.4.1.6.5.5.9h0c-.1.4-.5.6-.9.5-.4-.1-.6-.5-.5-.9ZM188.9,58.2c0-.4.3-.7.7-.8.4,0,.8.3.8.7,0,.4-.3.7-.7.8-.4,0-.8-.3-.8-.7ZM190.4,70c-.4,0-.7-.3-.8-.7,0,0,0,0,0,0h0s0,0,0,0c0-.4.3-.7.7-.8.4,0,.7.3.8.7,0,.4-.3.7-.7.8ZM191.1,45.4c.1-.4.5-.6.9-.5.4.1.6.5.5.9h0c-.1.4-.5.6-.9.5-.4-.1-.6-.5-.5-.9ZM192.6,48.3h0c-.1.4-.5.6-.9.5s-.6-.5-.5-.9c.1-.4.5-.6.9-.5s.6.5.5.9ZM191.2,60c0-.4.3-.8.7-.8.4,0,.8.3.8.7,0,.4-.3.8-.7.8h0c-.4,0-.8-.3-.8-.7ZM192.4,68c-.4,0-.8-.3-.8-.7,0,0,0,0,0,0h0s0,0,0,0c0-.4.3-.7.7-.8.4,0,.7.3.8.7,0,.4-.3.7-.7.8ZM193.1,79.9c-.2-.4,0-.8.3-1,.4-.2.8,0,1,.3.2.4,0,.8-.3,1-.4.2-.8,0-1-.3ZM194.3,82.3c-.2-.4,0-.8.3-1,.4-.2.8,0,1,.3s0,.8-.3,1c-.4.2-.8,0-1-.3ZM195.5,84.7c-.2-.4,0-.8.3-1s.8,0,1,.3c.2.4,0,.8-.3,1s-.8,0-1-.3ZM197.6,87.4c-.4.2-.8,0-1-.3-.2-.4,0-.8.3-1,.4-.2.8,0,1,.3s0,.8-.3,1ZM198.3,47.4c-.1.4-.5.6-.9.5-.4-.1-.6-.5-.5-.9.1-.4.5-.6.9-.5s.6.5.5.9ZM197.9,44.7c.1-.4.5-.6.9-.5h0c.4.1.6.5.5.9-.1.4-.5.6-.9.5-.4-.1-.6-.5-.5-.9ZM198.5,63.2h0c0-.4.3-.7.7-.8.4,0,.8.3.8.7,0,.4-.3.7-.7.8-.4,0-.7-.3-.8-.7ZM199.8,86.3c-.4.2-.8,0-1-.3-.2-.4,0-.8.3-1s.8,0,1,.3c.2.4,0,.8-.3,1ZM199.6,79.6h0c-.2-.4,0-.8.3-1s.8,0,1,.3c.2.4,0,.8-.3,1s-.8,0-1-.3ZM201.2,81c.4-.2.8,0,1,.3s0,.8-.3,1-.8,0-1-.3c-.2-.4,0-.8.3-1ZM201.9,85.3c-.4.2-.8,0-1-.3-.2-.4,0-.8.3-1,.4-.2.8,0,1,.3.2.4,0,.8-.3,1ZM202,63.7c-.4,0-.8-.3-.8-.7h0c0-.4.3-.7.7-.8.4,0,.7.3.8.7s-.3.7-.7.8ZM202.9,51c-.1.4-.5.6-.9.5s-.6-.5-.5-.9c.1-.4.5-.6.9-.5.4.1.6.5.5.9ZM203.2,24.4h0c.3-.3.7-.3,1,0,.3.3.3.7,0,1-.3.3-.7.3-1,0-.3-.3-.3-.7,0-1ZM204.1,84.2c-.4.2-.8,0-1-.3s0-.8.3-1c.4-.2.8,0,1,.3s0,.8-.3,1ZM203.8,74.5c-.2-.4,0-.8.3-1s.8,0,1,.3c.2.4,0,.8-.3,1s-.8,0-1-.3ZM205.3,76c.4-.2.8,0,1,.3.2.4,0,.8-.3,1s-.8,0-1-.3c-.2-.4,0-.8.3-1ZM205.2,82.8c-.2-.4,0-.8.3-1,.4-.2.8,0,1,.3s0,.8-.3,1c-.4.2-.8,0-1-.3ZM206.9,97.7c-.2.3-.7.4-1,.1s-.4-.7-.1-1c.2-.3.7-.4,1-.1.3.2.4.7.1,1ZM208.3,95.8c-.2.3-.7.4-1,.1-.3-.2-.4-.7-.1-1,.2-.3.7-.4,1-.1.3.2.4.7.1,1ZM209.7,93.9c-.2.3-.7.4-1,.1-.3-.2-.4-.7-.1-1,.2-.3.7-.4,1-.1.3.2.4.7.1,1ZM211.2,92c-.2.3-.7.4-1,.1h0c-.3-.2-.4-.7-.1-1,.2-.3.7-.4,1-.1.3.2.4.7.1,1ZM212.6,90c-.2.3-.7.4-1,.1-.3-.2-.4-.7-.1-1,.2-.3.7-.4,1-.1.3.2.4.7.1,1ZM212.9,87.2c.2-.3.7-.4,1-.1.3.2.4.7.1,1-.2.3-.7.4-1,.1-.3-.2-.4-.7-.1-1ZM213.2,89.9c.2-.3.7-.4,1-.1.3.2.4.7.1,1-.2.3-.7.4-1,.1h0c-.3-.2-.4-.7-.1-1ZM213.4,92.6c.2-.3.7-.4,1-.1.3.2.4.7.1,1-.2.3-.7.4-1,.1h0c-.3-.3-.4-.7-.1-1ZM213.6,95.3c.2-.3.7-.4,1-.1.3.2.4.7.1,1-.2.3-.7.4-1,.1h0c-.3-.2-.4-.7-.1-1ZM213.9,98c.2-.3.7-.4,1-.1.3.3.4.7.1,1-.2.3-.7.4-1,.1h0c-.3-.2-.4-.7-.1-1ZM214.1,100.7c.2-.3.7-.4,1-.1.3.2.4.7.1,1-.2.3-.7.4-1,.1-.3-.2-.4-.7-.1-1ZM215.5,104.2c-.2.3-.7.4-1,.1h0c-.3-.2-.4-.7-.1-1,.2-.3.7-.4,1-.1.3.2.4.7.1,1ZM217,102.3c-.2.3-.7.4-1,.1-.3-.2-.4-.7-.1-1,.2-.3.7-.4,1-.1.3.2.4.7.1,1ZM218.4,100.4c-.2.3-.7.4-1,.1-.3-.2-.4-.7-.1-1,.2-.3.7-.4,1-.1.3.2.4.7.1,1ZM219.8,98.5c-.2.3-.7.4-1,.1h0c-.3-.2-.4-.7-.1-1,.2-.3.7-.4,1-.1.3.2.4.7.1,1ZM221.3,96.6c-.2.3-.7.4-1,.1h0c-.3-.2-.4-.7-.1-1,.2-.3.7-.4,1-.1.3.2.4.7.1,1ZM222.7,94.7c-.2.3-.7.4-1,.1h0c-.3-.2-.4-.7-.1-1,.2-.3.7-.4,1-.1.3.2.4.7.1,1ZM222.5,25.3c-.2-.4,0-.8.4-1h0c.4-.2.8,0,1,.4.2.4,0,.8-.4,1-.4.2-.8,0-1-.4ZM224.8,108.8c0,.4-.5.6-.9.6-.4,0-.6-.5-.6-.9,0-.4.5-.6.9-.6.4,0,.6.5.6.9ZM224.9,24.1c-.2-.4,0-.8.4-1h0c.4-.2.8,0,1,.4.2.4,0,.8-.4,1-.4.2-.8,0-1-.4ZM227.2,109.3c0,.4-.5.6-.9.6-.4,0-.6-.5-.6-.9,0-.4.5-.6.9-.6.4,0,.6.5.6.9ZM227.3,23c-.2-.4,0-.8.4-1h0c.4-.2.8,0,1,.4.2.4,0,.8-.4,1-.4.2-.8,0-1-.4ZM229.5,109.8c0,.4-.5.6-.9.6-.4,0-.6-.5-.6-.9,0-.4.5-.6.9-.6.4,0,.6.5.6.9ZM230.3,108.7h0c-.4,0-.6-.5-.6-.9,0-.4.5-.6.9-.6.4,0,.6.5.6.9s-.5.6-.9.6ZM231.9,110.3c0,.4-.5.6-.9.6-.4,0-.6-.5-.6-.9,0-.4.5-.6.9-.6.4,0,.6.5.6.9ZM232.2,103.2c0,.4-.5.6-.9.6h0c-.4,0-.6-.5-.6-.9s.5-.6.9-.6c.4,0,.6.5.6.9ZM231.9,101.4h0c-.4,0-.6-.5-.6-.9,0-.4.5-.6.9-.6.4,0,.6.5.6.9,0,.4-.5.6-.9.6ZM234.2,110.9c0,.4-.5.6-.9.6h0c-.4,0-.6-.5-.6-.9,0-.4.5-.6.9-.6.4,0,.6.5.6.9ZM236.6,111.4c0,.4-.5.6-.9.6h0c-.4,0-.6-.5-.6-.9,0-.4.5-.6.9-.6.4,0,.6.5.6.9ZM236.9,21.5c-.4,0-.7-.3-.7-.7s.3-.7.7-.7.7.3.7.7-.3.7-.7.7ZM236.9,19.1c-.4,0-.7-.3-.7-.7s.3-.7.7-.7.7.3.7.7-.3.7-.7.7ZM236.9,16.7c-.4,0-.7-.3-.7-.7s.3-.7.7-.7.7.3.7.7-.3.7-.7.7ZM236.9,14.3c-.4,0-.7-.3-.7-.7s.3-.7.7-.7.7.3.7.7-.3.7-.7.7ZM236.9,11.9c-.4,0-.7-.3-.7-.7s.3-.7.7-.7.7.3.7.7-.3.7-.7.7ZM236.9,9.5c-.4,0-.7-.3-.7-.7s.3-.7.7-.7.7.3.7.7-.3.7-.7.7ZM239.9,21.5c-.4,0-.7-.3-.7-.7s.3-.7.7-.7.7.3.7.7-.3.7-.7.7ZM242.2,20.8c0-.4.3-.7.7-.7s.7.3.7.7-.3.7-.7.7-.7-.3-.7-.7ZM243.3,99.8c-.4.1-.8-.1-.9-.5-.1-.4.1-.8.5-.9.4-.1.8.1.9.5.1.4-.1.8-.5.9ZM243.9,108.1h0c0-.4.2-.8.6-.8.4,0,.8.2.8.6s-.2.8-.6.8c-.4,0-.8-.2-.8-.6ZM245.9,110.6c-.4,0-.8-.2-.8-.6,0-.4.2-.8.6-.8.4,0,.8.2.8.6s-.2.8-.6.8ZM246.1,104.6c0-.4.2-.8.6-.8.4,0,.8.2.8.6,0,.4-.2.8-.6.8-.4,0-.8-.2-.8-.6ZM248,111.1c-.4,0-.8-.2-.8-.6s.2-.8.6-.8c.4,0,.8.2.8.6,0,.4-.2.8-.6.8ZM248.4,104.2c0-.4.2-.8.6-.8.4,0,.8.2.8.6s-.2.8-.6.8c-.4,0-.8-.2-.8-.6ZM250.2,110.7c-.4,0-.8-.2-.8-.6s.2-.8.6-.8c.4,0,.8.2.8.6s-.2.8-.6.8ZM250.6,103.8c0-.4.2-.8.6-.8.4,0,.8.2.8.6,0,.4-.2.8-.6.8s-.8-.2-.8-.6ZM252.5,110.3c-.4,0-.8-.2-.8-.6,0-.4.2-.8.6-.8.4,0,.8.2.8.6s-.2.8-.6.8ZM253.1,104.6c0-.4.2-.8.6-.8s.8.2.8.6c0,.4-.2.8-.6.8-.4,0-.8-.2-.8-.6ZM253.5,106.9c0-.4.2-.8.6-.8s.8.2.8.6c0,.4-.2.8-.6.8s-.8-.2-.8-.6ZM254.8,109.9c-.4,0-.8-.2-.8-.6,0-.4.2-.8.6-.8.4,0,.8.2.8.6s-.2.8-.6.8ZM255.6,23.4c-.1.4-.6.6-.9.4-.4-.1-.6-.6-.4-.9.1-.4.6-.6.9-.4h0c.4.1.6.6.4.9ZM256.3,13.3c-.1.4-.6.6-.9.4-.4-.1-.6-.6-.4-.9.1-.4.6-.6.9-.4h0c.4.1.6.6.4.9ZM256.2,11.5c-.4-.1-.6-.6-.4-.9.1-.4.6-.6.9-.4h0c.4.1.6.6.4.9-.1.4-.6.6-.9.4ZM258.4,24.5c-.1.4-.6.6-.9.4-.4-.1-.6-.6-.4-.9.1-.4.6-.6.9-.4h0c.4.1.6.6.4.9ZM260.3,94.8c-.3.2-.8.1-1-.2-.2-.3-.1-.8.2-1,.3-.2.8-.1,1,.2h0c.2.3.1.8-.2,1ZM262.3,95.9c-.3.2-.8.1-1-.2-.2-.3-.1-.8.2-1,.3-.2.8-.1,1,.2h0c.2.3.1.8-.2,1ZM264.3,97c-.3.2-.8.1-1-.2-.2-.3-.1-.8.2-1,.3-.2.8-.1,1,.2h0c.2.3.1.8-.2,1ZM263.9,28.9c-.3-.3-.3-.7,0-1,.3-.3.7-.3,1,0,.3.3.3.7,0,1-.3.3-.7.3-1,0ZM265.4,94.5c.3-.2.8-.1,1,.2.2.3.1.8-.2,1-.3.2-.8.1-1-.2-.2-.3-.1-.8.2-1ZM266.4,98c-.3.2-.8.1-1-.2-.2-.3-.1-.8.2-1,.3-.2.8-.1,1,.2.2.3.1.8-.2,1ZM267,94.3c-.2-.3-.1-.8.2-1,.3-.2.8-.1,1,.2.2.3.1.8-.2,1-.3.2-.8.1-1-.2ZM268.4,99.1c-.3.2-.8.1-1-.2-.2-.3-.1-.8.2-1,.3-.2.8-.1,1,.2h0c.2.3.1.8-.2,1ZM268.2,27.3c-.3-.3-.3-.7,0-1,.3-.3.7-.3,1,0h0c.3.3.3.7,0,1-.3.3-.7.3-1,0ZM270.4,100.2c-.3.2-.8.1-1-.2-.2-.3-.1-.8.2-1h0c.3-.2.8-.1,1,.2.2.3.1.8-.2,1ZM270.9,28.8c-.3.3-.7.3-1,0-.3-.3-.3-.7,0-1,.3-.3.7-.3,1,0,.3.3.3.7,0,1ZM272.4,101.3c-.3.2-.8.1-1-.2-.2-.3-.1-.8.2-1,.3-.2.8-.1,1,.2h0c.2.3.1.8-.2,1ZM273.3,87.3c-.2.3-.7.4-1,.2s-.4-.7-.2-1h0c.2-.3.7-.4,1-.2.3.2.4.7.2,1ZM273.8,82.6c-.2.3-.7.5-1,.2s-.4-.7-.2-1h0c.2-.3.7-.4,1-.2.3.2.4.7.2,1ZM275,80.4c-.2.3-.7.4-1,.2s-.4-.7-.2-1h0c.2-.3.7-.4,1-.2s.5.7.2,1ZM274.7,25.1c-.3-.3-.3-.7,0-1,.3-.3.7-.3,1,0,.3.3.3.7,0,1h0c-.3.3-.7.3-1,0ZM276.7,78.5c-.2.3-.7.4-1,.2-.3-.2-.4-.7-.2-1,.2-.3.7-.4,1-.2s.4.7.2,1ZM276.7,38.3c-.4.2-.8,0-1-.4s0-.8.4-1,.8,0,1,.4,0,.8-.4,1ZM276.9,24.3c-.3-.3-.3-.7,0-1,.3-.3.7-.3,1,0h0c.3.3.3.7,0,1-.3.3-.7.3-1,0ZM277.8,77.8c-.3-.2-.4-.7-.2-1,.2-.3.7-.4,1-.2s.4.7.2,1-.7.4-1,.2ZM280.2,91.6c-.2.3-.7.4-1,.2-.3-.2-.4-.7-.2-1s.7-.4,1-.2.4.7.2,1ZM280.3,77.8c-.3-.2-.4-.7-.2-1h0c.2-.3.7-.4,1-.2.3.2.4.7.2,1-.2.3-.7.4-1,.2ZM282.4,90.7c-.2.3-.7.4-1,.2s-.4-.7-.2-1,.7-.4,1-.2c.3.2.4.7.2,1ZM282.4,77.7c.2-.3.7-.4,1-.2.3.2.4.7.2,1-.2.3-.7.4-1,.2s-.4-.7-.2-1ZM284.3,89.1c-.2.3-.7.4-1,.2-.3-.2-.4-.7-.2-1s.7-.4,1-.2.4.7.2,1ZM285.7,87.1c-.2.3-.7.4-1,.2-.3-.2-.4-.7-.2-1s.7-.4,1-.2.4.7.2,1h0ZM286.6,84.7h0c-.2.3-.7.4-1,.2s-.4-.7-.2-1,.7-.5,1-.2c.3.2.4.7.2,1ZM287.6,68.9h0c0,.4-.4.7-.8.7-.4,0-.7-.4-.7-.8,0-.4.4-.7.8-.7.4,0,.7.4.7.8ZM288.2,67.6c-.4,0-.7-.4-.7-.8,0-.4.4-.7.8-.7.4,0,.7.4.7.8h0c0,.4-.4.7-.8.7ZM289.5,64.5h0c0,.4-.4.7-.8.7-.4,0-.7-.4-.7-.8,0-.4.4-.7.8-.7.4,0,.7.4.7.8ZM290.6,46.4c-.4.2-.8,0-1-.4-.2-.4,0-.8.4-1h0c.4-.2.8,0,1,.4.2.4,0,.8-.4,1Z"/>
</svg>