<?xml version="1.0" encoding="UTF-8"?>
<svg id="TITLE_BLOCK" xmlns="http://www.w3.org/2000/svg" version="1.1" viewBox="0 0 841.89 228">
  <!-- Generator: Adobe Illustrator 30.3.0, SVG Export Plug-In . SVG Version: 2.1.3 Build 182)  -->
  <defs>
    <style>
      .st0 {
        fill: #231916;
      }
    </style>
  </defs>
  <g>
    <g>
      <path class="st0" d="M161.8,89.05c.38,2.1,3.74,2.05,3.52-.7-.32-3.52-3.88-1.38-3.52.7Z"/>
      <path class="st0" d="M127.61,55.02c.87,1.49,4.06,1.11,2.74-1.8-1.07-2.3-3.6.31-2.74,1.8Z"/>
      <path class="st0" d="M146.32,60.51s4.21.85,2.52-2.16c-1.68-3-4.82.73-2.52,2.16Z"/>
      <path class="st0" d="M132.67,62.46c-1.08-2.31-3.59.3-2.74,1.78.86,1.49,4.05,1.13,2.74-1.78Z"/>
      <path class="st0" d="M168.11,76.8s4.69.94,2.81-2.4c-1.86-3.33-5.35.82-2.81,2.4Z"/>
      <path class="st0" d="M151.03,42.52c-.32-3.52-3.88-1.37-3.49.7.37,2.08,3.73,2.04,3.49-.7Z"/>
      <path class="st0" d="M167.73,57.39c-1.07-2.32-3.58.28-2.73,1.78.87,1.49,4.05,1.12,2.73-1.78Z"/>
      <path class="st0" d="M166.13,83.93s4.67.97,2.81-2.38-5.35.81-2.81,2.38Z"/>
      <path class="st0" d="M137.68,59.17c1.13-2.59-3.09-2.59-3.25-.85-.17,1.74,2.1,3.47,3.25.85Z"/>
      <path class="st0" d="M153.68,74.48c-1.6-2.84-4.58.69-2.4,2.07,0,0,4,.8,2.4-2.07Z"/>
      <path class="st0" d="M148.79,68s3.82.78,2.29-1.95c-1.54-2.77-4.41.65-2.29,1.95Z"/>
      <path class="st0" d="M141.94,59.51c2.52,1.66,3.19-2.92,1.4-3.41-1.78-.41-3.94,1.76-1.4,3.41Z"/>
      <path class="st0" d="M161.34,52.83s4.67.96,2.82-2.37c-1.88-3.35-5.38.8-2.82,2.37Z"/>
      <path class="st0" d="M151.27,63.26s4,.95,2.37-2.35c-1.61-3.34-4.56.76-2.37,2.35Z"/>
      <path class="st0" d="M142.99,91.59c-1.26-2.59-4.22.34-3.22,2,.99,1.67,4.77,1.24,3.22-2Z"/>
      <path class="st0" d="M136.24,75.66c-.32-.65-.72-.99-1.12-1.12.6-.24.93-.85.27-2.21-1.53-3.15-4.33.74-2.25,2.24,0,0,.41.11.91.13-.95.61-1.47,2.31-.18,3.22,0,0,3.97.91,2.36-2.25Z"/>
      <path class="st0" d="M167.25,64.5c2.82,1.84,3.57-3.27,1.59-3.79-1.99-.49-4.39,1.94-1.59,3.79Z"/>
      <path class="st0" d="M171.37,67.35c-1.87-3.35-5.36.8-2.81,2.4,0,0,4.67.94,2.81-2.4Z"/>
      <path class="st0" d="M149.57,91.91s4.69.94,2.83-2.41c-1.88-3.33-5.36.81-2.83,2.41Z"/>
      <path class="st0" d="M145.21,94.21s4.68.94,2.82-2.4c-1.88-3.35-5.36.81-2.82,2.4Z"/>
      <path class="st0" d="M119.07,68.88c.38,2.08,3.73,2.04,3.51-.72-.33-3.51-3.89-1.37-3.51.72Z"/>
      <path class="st0" d="M120.59,64.13c.85,1.49,4.03,1.12,2.73-1.77-1.08-2.33-3.6.28-2.73,1.77Z"/>
      <path class="st0" d="M154.33,70.48c-1.6-2.85-4.57.68-2.4,2.04,0,0,4,.8,2.4-2.04Z"/>
      <path class="st0" d="M145.44,86.18c-.96-2.1-3.25.25-2.46,1.59.77,1.35,3.63,1,2.46-1.59Z"/>
      <path class="st0" d="M154.04,95.39c.36,2.09,3.73,2.04,3.51-.71-.32-3.5-3.88-1.36-3.51.71Z"/>
      <path class="st0" d="M131.21,86.31c-1.05-2.31-3.59.28-2.73,1.79.87,1.48,4.04,1.1,2.73-1.79Z"/>
      <path class="st0" d="M133.11,52.68s4.67.94,2.79-2.38c-1.86-3.35-5.34.78-2.79,2.38Z"/>
      <path class="st0" d="M145.4,41.3c-.32-3.53-3.88-1.37-3.51.71.37,2.08,3.74,2.04,3.51-.71Z"/>
      <path class="st0" d="M127.07,82.1c-1.08-2.33-3.6.28-2.73,1.76.86,1.5,4.03,1.12,2.73-1.76Z"/>
      <path class="st0" d="M156.4,66.41c1.14-2.59-3.08-2.63-3.24-.87-.17,1.75,2.11,3.45,3.24.87Z"/>
      <path class="st0" d="M150.07,98.17c-1.28-2.18-3.24-1.04-3.6.44-.94-1.79-3.53.05-3.21,1.85.34,1.97,3.39,2.02,3.51-.31.13.17.3.34.52.49,0,0,4.57.89,2.87-2.31.13.23.31.44.57.61,0,0,4.17.94,2.49-2.36-1.47-2.87-3.96-.2-3.14,1.6Z"/>
      <path class="st0" d="M133.94,69.88s3.84.8,2.31-1.95c-1.54-2.75-4.39.67-2.31,1.95Z"/>
      <path class="st0" d="M159.99,83.47c-1.62-3.32-4.56.75-2.36,2.36,0,0,3.99.97,2.36-2.36Z"/>
      <path class="st0" d="M156.92,88.27c1.36-2.98-3.63-2.96-3.84-.99-.2,1.98,2.48,3.93,3.84.99Z"/>
      <path class="st0" d="M164.18,75.07c-1.69-3.32-4.77.77-2.5,2.35,0,0,4.19.96,2.5-2.35Z"/>
      <path class="st0" d="M130.37,68.59c-1.79-.44-3.94,1.75-1.42,3.38,2.54,1.65,3.21-2.94,1.42-3.38Z"/>
      <path class="st0" d="M145.23,65.18s3.29.81,1.94-1.92c-1.34-2.75-3.73.61-1.94,1.92Z"/>
      <path class="st0" d="M140.99,63.88s3.43.79,2.05-1.94c-1.39-2.72-3.91.63-2.05,1.94Z"/>
      <path class="st0" d="M157.23,48.67c2.8,1.81,3.56-3.27,1.56-3.78-1.99-.49-4.39,1.94-1.56,3.78Z"/>
      <path class="st0" d="M152.9,46.1s4.68.95,2.81-2.39c-1.87-3.35-5.35.81-2.81,2.39Z"/>
      <path class="st0" d="M121.73,78.22c-.16,1.74,2.11,3.47,3.25.86,1.13-2.6-3.08-2.62-3.25-.86Z"/>
      <path class="st0" d="M138.65,64.11c-1.54-2.75-4.41.66-2.31,1.96,0,0,3.84.78,2.31-1.96Z"/>
      <path class="st0" d="M137.93,87.79s4.2.85,2.52-2.16c-1.68-3.02-4.82.73-2.52,2.16Z"/>
      <path class="st0" d="M157.09,61.01s4.18.98,2.5-2.36c-1.69-3.31-4.79.78-2.5,2.36Z"/>
      <path class="st0" d="M124.07,59.87s3.99.98,2.37-2.36c-1.6-3.33-4.55.77-2.37,2.36Z"/>
      <path class="st0" d="M147.66,78.89c-.17,1.78,2.24,3.55,3.47.89,1.22-2.66-3.28-2.66-3.47-.89Z"/>
      <path class="st0" d="M123.07,73.5c-1.7-3.32-4.79.8-2.49,2.36,0,0,4.16.97,2.49-2.36Z"/>
      <path class="st0" d="M129.31,79.02c2.53,1.65,3.21-2.94,1.41-3.39-1.78-.45-3.93,1.75-1.41,3.39Z"/>
      <path class="st0" d="M135.47,82.76c-1.68-3.03-4.82.73-2.54,2.16,0,0,4.22.85,2.54-2.16Z"/>
      <path class="st0" d="M138.55,51.64s4.68.95,2.81-2.39c-1.88-3.35-5.35.8-2.81,2.39Z"/>
      <path class="st0" d="M156.19,55.07c-1.07-2.31-3.6.29-2.73,1.78.87,1.5,4.04,1.12,2.73-1.78Z"/>
      <path class="st0" d="M160.71,67.74c.86,1.49,4.04,1.12,2.73-1.77-1.06-2.3-3.59.28-2.73,1.77Z"/>
      <path class="st0" d="M143.22,82.91s4.22.85,2.53-2.16c-1.67-3.01-4.81.73-2.53,2.16Z"/>
      <path class="st0" d="M144.08,52.18s4.67.93,2.8-2.38c-1.86-3.34-5.34.8-2.8,2.38Z"/>
      <path class="st0" d="M147.28,68.35c-1.62-.39-3.6,1.62-1.28,3.12.15.11.32.18.47.23-.33.14-.63.43-.91.91-1.54,2.75,2.3,1.95,2.3,1.95,1.35-.82.63-2.54-.44-2.91,1.05-.58,1.08-2.99-.13-3.3Z"/>
      <path class="st0" d="M110.66,64.19s4.67.95,2.82-2.4c-1.87-3.32-5.36.81-2.82,2.4Z"/>
      <path class="st0" d="M144.81,66.82c-1.61-2.9-4.62.69-2.42,2.07,0,0,4.04.83,2.42-2.07Z"/>
      <path class="st0" d="M137.28,101.05s4.17.96,2.49-2.36c-1.69-3.32-4.78.78-2.49,2.36Z"/>
      <path class="st0" d="M143.03,77.25s3.29.81,1.95-1.92c-1.33-2.74-3.75.63-1.95,1.92Z"/>
      <path class="st0" d="M130.86,43.88s4.69.93,2.82-2.41c-1.87-3.34-5.36.81-2.82,2.41Z"/>
      <path class="st0" d="M112.71,71.59c-1.06-2.33-3.59.28-2.73,1.78.88,1.49,4.05,1.11,2.73-1.78Z"/>
      <path class="st0" d="M113.55,77.84c-1.07-2.32-3.6.29-2.74,1.77.86,1.49,4.04,1.11,2.74-1.77Z"/>
      <path class="st0" d="M136.45,42.89s4.68.94,2.81-2.38c-1.87-3.36-5.36.79-2.81,2.38Z"/>
      <path class="st0" d="M125.88,45.3s4.68.93,2.81-2.41c-1.86-3.32-5.34.81-2.81,2.41Z"/>
      <path class="st0" d="M121.45,47.97c2.81,1.84,3.57-3.24,1.58-3.77-1.97-.48-4.38,1.97-1.58,3.77Z"/>
      <path class="st0" d="M116.41,82.14c-1.87-3.35-5.35.8-2.8,2.39,0,0,4.66.94,2.8-2.39Z"/>
      <path class="st0" d="M162.24,62.64c-1.87-3.35-5.36.8-2.81,2.39,0,0,4.67.94,2.81-2.39Z"/>
      <path class="st0" d="M113.23,58.15s4.66.94,2.79-2.38c-1.87-3.35-5.35.78-2.79,2.38Z"/>
      <path class="st0" d="M164.53,70.6c-1.86-3.34-5.35.8-2.8,2.39,0,0,4.68.94,2.8-2.39Z"/>
      <path class="st0" d="M116.36,51.8s4.66.94,2.79-2.41c-1.86-3.35-5.34.81-2.79,2.41Z"/>
      <path class="st0" d="M162.82,81.03c.85-1.48-1.68-4.08-2.74-1.76-1.31,2.9,1.87,3.27,2.74,1.76Z"/>
      <path class="st0" d="M158.33,77.4c.87-1.49-1.65-4.09-2.72-1.77-1.32,2.88,1.87,3.26,2.72,1.77Z"/>
      <path class="st0" d="M158.73,69.65c-1.07-2.31-3.6.28-2.74,1.78.86,1.48,4.05,1.1,2.74-1.78Z"/>
      <path class="st0" d="M139.73,78.73c-1.06-2.3-3.6.3-2.74,1.78.87,1.5,4.04,1.13,2.74-1.78Z"/>
      <path class="st0" d="M126.51,97.33s4.67.95,2.81-2.39c-1.88-3.35-5.36.8-2.81,2.39Z"/>
      <path class="st0" d="M155.47,81.26c-1.68-3.03-4.82.72-2.53,2.15,0,0,4.22.84,2.53-2.15Z"/>
      <path class="st0" d="M121.56,93.69s4.67.96,2.81-2.39c-1.87-3.34-5.36.81-2.81,2.39Z"/>
      <path class="st0" d="M149.01,54.66s4.7.93,2.82-2.41c-1.87-3.34-5.35.81-2.82,2.41Z"/>
      <path class="st0" d="M139.13,71.62s3.84.75,2.29-1.97c-1.52-2.75-4.39.66-2.29,1.97Z"/>
      <path class="st0" d="M150.01,84.19c-1.68-3.02-4.83.73-2.54,2.16,0,0,4.23.82,2.54-2.16Z"/>
      <path class="st0" d="M110.46,68.15s4.68.94,2.81-2.41c-1.87-3.36-5.35.82-2.81,2.41Z"/>
      <path class="st0" d="M116.79,89.16s4.66.93,2.8-2.39c-1.86-3.35-5.34.79-2.8,2.39Z"/>
      <path class="st0" d="M158.33,93.1c.87,1.49,4.05,1.11,2.74-1.78-1.08-2.32-3.6.3-2.74,1.78Z"/>
      <path class="st0" d="M133.36,91.59c.85,1.49,4.04,1.11,2.72-1.79-1.07-2.32-3.6.29-2.72,1.79Z"/>
      <path class="st0" d="M141.86,74.07c-1.54-2.74-4.4.65-2.32,1.95,0,0,3.84.78,2.32-1.95Z"/>
      <path class="st0" d="M131.86,99.83s4.67.94,2.8-2.41c-1.85-3.34-5.34.8-2.8,2.41Z"/>
    </g>
    <path class="st0" d="M255.09,55.77s-4.49,2.51-8.64,4.72c-.57-1.22-1.14-2.41-1.71-3.54-9-17.54-12.91-20.88-22.38-28.95l-2.19-1.87-.02-.02h-.02c-12.24-7.9-18.78-11.8-27.65-15.44h-.03s-.03-.02-.03-.02c-10.68-2.75-20.15-4.47-26.68-4.83-8.02-.34-11.97,1-18.5,3.22l-.07.04c-9.28,3.19-12.58,5.32-16.07,7.57-.03,0-4.14,2.52-4.14,2.52-.1.05-10.7,6.3-19.11,13.29-3.49,2.45-13.02,13.09-14.36,15.69-.62.61-8.4,8.44-10.99,18.37h0v.03h0c-.08.16-.15.38-.25.67l-.57,1.63-.83,2.37c-1.12,3.01-2.2,5.84-2.39,8.9,0-.02-.17,1.59-.17,1.59-.05.3-.08.64-.13,1-2.56-.68-5.14-1.25-7.73-1.86-5.43-1.97-11.1-3.47-16.72-5.05-8.8-2.54-16.3-8.28-24.08-13.26-4.42-1.5-7.68-5.38-11.67-7.85-2.94-4.08-6.69-7.29-10.01-11.43l-1.4-2.22c-1-1.43-1.63.92-2.63-.19l-.25.58c.66,1.35,1.49,2.84,2.07,4.13.1.25-.18.87.35,1.06,2.69,9.47,12.09,15.82,19.59,21.77,8.23,6.46,18.27,8.57,27.84,11.8.43.61-.53,2.1.76,2.06.87-.3,1.55.58,2.46.48,7.17,1.12,10.92,9.23,16.82,12.21,1.21,1.5,2.43,2.91,3.68,4.25-.15,5.32.44,15.19,4.92,28.92v.02h0c.05.13.29.92.44,1.41,1.16,3.91,4.26,14.29,9.14,21.26,14.47,20.71,38.03,31.22,42.13,32.93.42,3.81,1.08,6.75,1.08,10.19,0,6.73-.04,17.08,0,25.56.37.5.29,2.83,1.37,2.75.72.06,1.39-2.57,1.39-2.57-.57-9.69.24-24.4-.72-34.51,2.94,1.32,5.85,2.36,9.04,3.18-.02.67-.05,1.26-.08,1.77-.47,4.27-.13,7-.24,9.68l.59,1.63c1.25,1.07,1.26.06,1.97-1.31.07-5.3-.15-6.31-.15-6.31.06-.13.33-2.04.66-4.82,3.33.71,7,1.23,11.27,1.65,7.19.69,17.18-.23,24.13-1.33,6.28-1,17.49-4.62,25.92-9.32,9.47-6.25,19.08-14.82,27.81-24.82l.44-.52c6.84-9.02,14.99-22.64,17.48-48.33,0,0,.06-.51.06-.51.24-2.1.77-6.46-1.9-24.48-.24-1.59-1.6-6-3.51-11.09.58-.56,1.14-1.15,1.71-1.77,1.15-.77,1.87-2.07,2.65-2.55.19-1.29,1.96-2.06,2.31-3.22.39-.49.39-1.49.57-1.49.15-.53-.81-1.34,0-1.88,0,0,.58-1.92,1.31-2.88-.62-1.4,1.2-1.49,1.39-2.9-.66-.61-3.74,1.59-5.34,2.23ZM80.44,82.01h0v-.04s.19-1.7.19-1.7c.18-2.76,1.2-5.44,2.27-8.29,0-.01,1.69-4.87,1.69-4.87,2.5-9.56,10.43-17.42,10.5-17.49.02-.01.12-.13.12-.13l.07-.06.03-.09.05-.13c.42-1.11,9.92-12.31,13.81-15.05,8.44-7,18.79-13.07,18.89-13.12.02,0,4.18-2.58,4.18-2.58,0,0,.07-.03.07-.03,3.38-2.17,6.57-4.22,15.41-7.25,6.61-2.27,10.26-3.52,17.93-3.2,6.37.36,15.65,2.05,26.14,4.73,8.61,3.57,15.05,7.39,27.08,15.14l2.1,1.79c9.25,7.89,13.06,11.14,21.86,28.29.59,1.15,1.16,2.34,1.72,3.54-.95.5-1.83.95-2.59,1.32-4.35,2.09-15.09,4.97-25.58,10.34-10.5,5.39-7.55,5.24-28.57,18.72-7.57,4.87-15.42,8.7-28.89,15.98-6.5,3.53-14.04,3.29-17,3.14-2.94-.13-8.59-1.26-9.97-1.96-11.25-4.1-20.94-12.32-31.58-17.41-4.27-1.39-7.98-4.24-12.45-5.1-2.4-1.41-4.96-2.4-7.6-3.2.06-.48.12-.92.15-1.31ZM93.55,149.54c-4.66-6.65-7.69-16.78-8.84-20.6h0v-.05l-.47-1.5c-3.81-11.63-4.74-20.46-4.82-25.99,2.01,1.95,4.16,3.74,6.53,5.41,7.64,5.05,15.61,9.22,24.23,12.02,7.15,2.5,14.25,5.28,21.76,6.92-.81,6.05-6.63,11.33-12.12,13.51-.62.42-1.3.81-2.06,1.01l-8.65,5.65-2.08.25.83,1.58c.48.1,1.2.2.91.82l2.3-.43c1.25.38,2.59.86,3.37,2.16,3.5,1.89,7.26-.77,10.49-2.06,2.26-1.05,3.99-3.7,6.43-3.95,1.08,4.71.67,9.99,2.55,14.33-.48,3.54-.54,7.48.13,10.95-.26,5.2-.91,7.8-.38,11.67-6.08-2.68-26.95-12.85-40.1-31.7ZM136.71,182.62c-.03-.14-.03-.29-.06-.42-1.44-3.28-1.34-27.13,4.37-34.01,1.31-1.43.95-4.21,4.37-5.4,1.56-.37,2.49.99,3.5,1.66,2.59,1.45.28,14.38-.24,17.41-.09,1.05.54,1.38.06,2.34-.09,0-.17,1.97-.17,1.97-1.37,2.45-2.06,13.13-2.39,19.95-3.32-.89-6.34-2.02-9.44-3.49ZM251.85,81.61c1.38,9.35,2.1,16.23,2.1,20.46,0,1.72-.12,2.69-.2,3.4v.06s-.07.55-.07.55c-2.45,25.14-10.34,38.39-16.95,47.12v.02s-.44.48-.44.48c-8.62,9.86-18.05,18.29-27.31,24.41-8.19,4.56-19.07,8.06-25.13,9.02-6.79,1.08-16.54,1.99-23.56,1.33-4.28-.41-7.93-.94-11.23-1.65.98-8.23,2.3-20.88,1.82-21.5.66-2.45,2.06-7.36,2.06-7.36,2.1-6.26,3.71-13.26,4.96-19.27-.3-2.51,0-5.44,1.27-6.21,1.24-.77,1.39-3.22,8.95,1.4,1.77.92,7.73,6.69,7.93,6.63-.62-.96-2.09-3.72-2.86-4.63-1.81-2.1-2.38-4.08-3.05-4.75-2.99-5.96-1.09-2.45-2.72-4.96-.18-.14-1.55-2.54-3.63-2.94-2.1-.38-4.48.29-4.48.29-1.17.42-1.8.34-2.07-.07l-.36-.63s-3.52-6.62,9.6-14.42c11.77-7,15.98-8.69,15.98-8.69,0,0,16.25-6.74,25.28-10.84,9.02-4.11,10.3-4.83,17.63-7.31,6.38-2.16,15.33-3.09,23.38-9.79,1.75,4.71,2.92,8.59,3.1,9.85Z"/>
  </g>
  <g>
    <g>
      <path class="st0" d="M302.14,33.22v31.07h-7.74v-31.07h-11.11v-7.63h29.96v7.63h-11.11Z"/>
      <path class="st0" d="M333.93,64.9c-10.12,0-17.02-7.41-17.02-19.9s7.02-20.01,17.13-20.01,16.97,7.41,16.97,19.9-7.02,20.01-17.08,20.01ZM333.87,32.67c-5.41,0-9.01,4.37-9.01,12.22s3.76,12.32,9.17,12.32,9.02-4.37,9.02-12.21-3.76-12.33-9.18-12.33Z"/>
      <path class="st0" d="M373.07,64.9c-9.34,0-15.65-6.3-15.65-17.58v-21.73h7.74v21.61c0,6.19,2.99,10.11,7.91,10.11s7.96-3.81,7.96-10v-21.73h7.74v21.61c0,11.22-5.86,17.69-15.7,17.69Z"/>
      <path class="st0" d="M418.67,64.29l-6.91-13.93h-7.8v13.93h-7.74V25.59h18.02c7.3,0,13.32,4.04,13.32,12.27,0,5.81-2.49,9.45-7.41,11.39l7.41,15.04h-8.9ZM414.07,33.11h-10.11v9.95h10.11c3.59,0,5.54-1.66,5.54-5.03s-2.11-4.92-5.54-4.92Z"/>
      <path class="st0" d="M435.14,64.29V25.59h7.74v38.7h-7.74Z"/>
      <path class="st0" d="M465.43,64.9c-6.47,0-12.1-2.71-15.03-7.02l5.58-4.98c2.7,3.15,6.19,4.42,9.89,4.42,4.59,0,6.75-1.27,6.75-4.2,0-2.49-1.33-3.59-8.62-5.25-7.13-1.66-12.11-3.92-12.11-11.55,0-7.02,6.19-11.33,13.82-11.33,6.03,0,10.45,2.27,14.09,6.08l-5.58,5.42c-2.48-2.54-5.25-3.98-8.79-3.98-4.14,0-5.53,1.77-5.53,3.48,0,2.43,1.66,3.21,7.79,4.64,6.13,1.44,12.94,3.54,12.94,11.94,0,7.35-4.64,12.33-15.21,12.33Z"/>
      <path class="st0" d="M516.18,64.29v-14.21c0-2.1.11-7.02.11-8.51-.55,1.44-1.71,4.2-2.71,6.41l-7.84,17.19-7.85-17.19c-.99-2.21-2.15-4.98-2.71-6.41,0,1.49.12,6.41.12,8.51v14.21h-7.57V25.59h7.46l8.07,17.52c.99,2.16,2.15,5.09,2.65,6.47.5-1.44,1.6-4.26,2.59-6.47l7.8-17.52h7.63v38.7h-7.74Z"/>
      <path class="st0" d="M569.9,64.29l-14.21-21.12c-.93-1.44-2.21-3.37-2.71-4.37,0,1.44.12,6.3.12,8.46v17.03h-7.63V25.59h7.41l13.71,20.45c.94,1.44,2.21,3.37,2.71,4.37,0-1.44-.11-6.3-.11-8.46v-16.36h7.62v38.7h-6.91Z"/>
      <path class="st0" d="M602.02,33.22v31.07h-7.75v-31.07h-11.1v-7.63h29.96v7.63h-11.11Z"/>
    </g>
    <g>
      <path class="st0" d="M309.73,127.36l-16.92-26.49c-.84-1.33-2.27-3.87-2.77-4.87v31.35h-4.15v-38.7h4.21l16.75,26.98c.83,1.33,2.27,3.87,2.76,4.87v-31.85h4.15v38.7h-4.04Z"/>
      <path class="st0" d="M336.04,127.97c-9.62,0-15.98-8.24-15.98-19.9s6.47-20.02,16.09-20.02,16.04,8.24,16.04,19.91-6.53,20.01-16.15,20.01ZM335.99,91.98c-6.69,0-11.61,6.25-11.61,15.98s5.08,16.09,11.83,16.09,11.67-6.25,11.67-15.98-5.14-16.09-11.89-16.09Z"/>
      <path class="st0" d="M376.73,110.56l8.52,16.81h-4.98l-8.29-16.48h-9.18v16.48h-4.32v-38.7h15.31c6.81,0,12.05,3.48,12.05,10.95,0,6.03-3.59,9.79-9.12,10.95ZM373.64,92.59h-10.83v14.43h10.28c5.75,0,8.46-2.38,8.46-7.24s-2.77-7.19-7.91-7.19Z"/>
      <path class="st0" d="M404.49,92.59v34.78h-4.32v-34.78h-11.39v-3.93h27.1v3.93h-11.39Z"/>
      <path class="st0" d="M445.02,127.36v-18.25h-19.24v18.25h-4.32v-38.7h4.32v16.53h19.24v-16.53h4.31v38.7h-4.31Z"/>
      <path class="st0" d="M457.29,127.36v-38.7h23.4v3.93h-19.08v12.16h11.06v3.93h-11.06v14.76h19.91v3.93h-24.22Z"/>
      <path class="st0" d="M505.78,110.56l8.52,16.81h-4.98l-8.29-16.48h-9.18v16.48h-4.32v-38.7h15.31c6.81,0,12.05,3.48,12.05,10.95,0,6.03-3.59,9.79-9.12,10.95ZM502.69,92.59h-10.83v14.43h10.29c5.75,0,8.46-2.38,8.46-7.24s-2.77-7.19-7.91-7.19Z"/>
      <path class="st0" d="M545.09,127.36l-16.92-26.49c-.83-1.33-2.27-3.87-2.77-4.87v31.35h-4.14v-38.7h4.2l16.75,26.98c.83,1.33,2.27,3.87,2.77,4.87v-31.85h4.14v38.7h-4.04Z"/>
      <path class="st0" d="M582.58,92.59v34.78h-4.31v-34.78h-11.39v-3.93h27.09v3.93h-11.39Z"/>
      <path class="st0" d="M599.55,127.36v-38.7h23.39v3.93h-19.07v12.16h11.05v3.93h-11.05v14.76h19.91v3.93h-24.22Z"/>
      <path class="st0" d="M648.05,110.56l8.52,16.81h-4.98l-8.3-16.48h-9.18v16.48h-4.32v-38.7h15.32c6.8,0,12.05,3.48,12.05,10.95,0,6.03-3.59,9.79-9.12,10.95ZM644.95,92.59h-10.84v14.43h10.28c5.75,0,8.46-2.38,8.46-7.24s-2.76-7.19-7.9-7.19Z"/>
      <path class="st0" d="M681.77,110.56l8.52,16.81h-4.98l-8.3-16.48h-9.18v16.48h-4.32v-38.7h15.32c6.8,0,12.05,3.48,12.05,10.95,0,6.03-3.6,9.79-9.12,10.95ZM678.68,92.59h-10.84v14.43h10.29c5.75,0,8.46-2.38,8.46-7.24s-2.76-7.19-7.9-7.19Z"/>
      <path class="st0" d="M699.74,127.36v-38.7h4.32v38.7h-4.32Z"/>
      <path class="st0" d="M725.61,92.59v34.78h-4.31v-34.78h-11.39v-3.93h27.09v3.93h-11.39Z"/>
      <path class="st0" d="M754.7,127.97c-9.62,0-15.98-8.24-15.98-19.9s6.47-20.02,16.09-20.02,16.04,8.24,16.04,19.91-6.53,20.01-16.15,20.01ZM754.64,91.98c-6.69,0-11.61,6.25-11.61,15.98s5.08,16.09,11.83,16.09,11.67-6.25,11.67-15.98-5.14-16.09-11.89-16.09Z"/>
      <path class="st0" d="M795.4,110.56l8.52,16.81h-4.98l-8.3-16.48h-9.18v16.48h-4.32v-38.7h15.32c6.8,0,12.05,3.48,12.05,10.95,0,6.03-3.59,9.79-9.12,10.95ZM792.3,92.59h-10.84v14.43h10.28c5.75,0,8.46-2.38,8.46-7.24s-2.76-7.19-7.9-7.19Z"/>
      <path class="st0" d="M824.09,111.99v15.37h-4.31v-15.32l-13.27-23.39h4.92l6.19,11.11c1.55,2.82,3.27,6.03,4.37,8.3,1.11-2.27,2.82-5.53,4.36-8.3l6.2-11.11h4.81l-13.27,23.33Z"/>
    </g>
    <g>
      <path class="st0" d="M310.82,178.26l-3.32-9.84h-15.97l-3.37,9.84h-4.42l13.44-38.69h4.75l13.44,38.69h-4.54ZM301.92,151.78c-.88-2.54-1.99-6.02-2.37-7.63-.38,1.55-1.49,5.03-2.43,7.74l-4.26,12.6h13.32l-4.26-12.71Z"/>
      <path class="st0" d="M333.71,178.87c-9.23,0-13.99-5.58-13.99-16.31v-23h4.32v22.89c0,8.35,3.2,12.49,9.89,12.49s9.34-4.04,9.34-12.38v-23h4.32v22.89c0,10.72-4.59,16.42-13.88,16.42Z"/>
      <path class="st0" d="M366.22,178.87c-5.26,0-9.96-2.27-13-5.36l2.87-3.21c2.93,2.82,6.31,4.64,10.29,4.64,5.14,0,8.34-2.54,8.34-6.63,0-3.59-2.15-5.64-9.23-8.18-8.35-2.99-11.17-5.7-11.17-11.28,0-6.19,4.86-9.9,12.11-9.9,5.19,0,8.51,1.55,11.76,4.15l-2.76,3.37c-2.82-2.32-5.42-3.59-9.28-3.59-5.31,0-7.52,2.65-7.52,5.69,0,3.21,1.43,5.03,9.17,7.79,8.57,3.1,11.23,5.97,11.23,11.72,0,6.08-4.76,10.78-12.82,10.78Z"/>
      <path class="st0" d="M397.94,143.49v34.77h-4.31v-34.77h-11.39v-3.93h27.09v3.93h-11.39Z"/>
      <path class="st0" d="M433.15,161.46l8.51,16.8h-4.97l-8.3-16.47h-9.18v16.47h-4.31v-38.69h15.31c6.8,0,12.05,3.48,12.05,10.95,0,6.02-3.59,9.79-9.12,10.95ZM430.06,143.49h-10.84v14.43h10.28c5.75,0,8.46-2.38,8.46-7.24s-2.77-7.19-7.9-7.19Z"/>
      <path class="st0" d="M472.9,178.26l-3.32-9.84h-15.97l-3.37,9.84h-4.42l13.44-38.69h4.75l13.44,38.69h-4.54ZM464,151.78c-.88-2.54-1.99-6.02-2.37-7.63-.38,1.55-1.49,5.03-2.43,7.74l-4.26,12.6h13.32l-4.26-12.71Z"/>
      <path class="st0" d="M483.23,178.26v-38.69h4.32v34.77h19.13v3.92h-23.44Z"/>
      <path class="st0" d="M513.09,178.26v-38.69h4.31v38.69h-4.31Z"/>
      <path class="st0" d="M550.56,178.26l-3.33-9.84h-15.97l-3.36,9.84h-4.42l13.43-38.69h4.76l13.43,38.69h-4.53ZM541.66,151.78c-.88-2.54-1.99-6.02-2.38-7.63-.38,1.55-1.49,5.03-2.43,7.74l-4.26,12.6h13.32l-4.25-12.71Z"/>
    </g>
    <rect class="st0" x="283.49" y="75.91" width="554.73" height="1.48"/>
  </g>
</svg>